%TF.GenerationSoftware,KiCad,Pcbnew,(5.1.12)-1*%
%TF.CreationDate,2023-08-26T19:48:31+05:30*%
%TF.ProjectId,Smart vibration sensor alaram,536d6172-7420-4766-9962-726174696f6e,rev?*%
%TF.SameCoordinates,Original*%
%TF.FileFunction,Copper,L1,Top*%
%TF.FilePolarity,Positive*%
%FSLAX46Y46*%
G04 Gerber Fmt 4.6, Leading zero omitted, Abs format (unit mm)*
G04 Created by KiCad (PCBNEW (5.1.12)-1) date 2023-08-26 19:48:31*
%MOMM*%
%LPD*%
G01*
G04 APERTURE LIST*
%TA.AperFunction,ComponentPad*%
%ADD10O,1.400000X1.400000*%
%TD*%
%TA.AperFunction,ComponentPad*%
%ADD11C,1.400000*%
%TD*%
%TA.AperFunction,ComponentPad*%
%ADD12O,2.400000X1.600000*%
%TD*%
%TA.AperFunction,ComponentPad*%
%ADD13R,2.400000X1.600000*%
%TD*%
%TA.AperFunction,ComponentPad*%
%ADD14O,1.600000X1.600000*%
%TD*%
%TA.AperFunction,ComponentPad*%
%ADD15R,1.600000X1.600000*%
%TD*%
%TA.AperFunction,ComponentPad*%
%ADD16C,1.498000*%
%TD*%
%TA.AperFunction,ComponentPad*%
%ADD17R,1.498000X1.498000*%
%TD*%
%TA.AperFunction,ComponentPad*%
%ADD18R,1.050000X1.500000*%
%TD*%
%TA.AperFunction,ComponentPad*%
%ADD19O,1.050000X1.500000*%
%TD*%
%TA.AperFunction,ComponentPad*%
%ADD20O,1.700000X1.700000*%
%TD*%
%TA.AperFunction,ComponentPad*%
%ADD21R,1.700000X1.700000*%
%TD*%
%TA.AperFunction,ComponentPad*%
%ADD22O,1.800000X1.800000*%
%TD*%
%TA.AperFunction,ComponentPad*%
%ADD23R,1.800000X1.800000*%
%TD*%
%TA.AperFunction,ComponentPad*%
%ADD24C,1.800000*%
%TD*%
%TA.AperFunction,ComponentPad*%
%ADD25C,1.200000*%
%TD*%
%TA.AperFunction,ComponentPad*%
%ADD26R,1.200000X1.200000*%
%TD*%
%TA.AperFunction,ComponentPad*%
%ADD27C,1.600000*%
%TD*%
%TA.AperFunction,ViaPad*%
%ADD28C,3.500000*%
%TD*%
%TA.AperFunction,Conductor*%
%ADD29C,0.250000*%
%TD*%
%TA.AperFunction,Conductor*%
%ADD30C,0.254000*%
%TD*%
%TA.AperFunction,Conductor*%
%ADD31C,0.100000*%
%TD*%
G04 APERTURE END LIST*
D10*
%TO.P,R7,2*%
%TO.N,Net-(D3-Pad2)*%
X141680000Y-83450000D03*
D11*
%TO.P,R7,1*%
%TO.N,Net-(C6-Pad1)*%
X136600000Y-83450000D03*
%TD*%
D12*
%TO.P,U2,8*%
%TO.N,Net-(R8-Pad2)*%
X112095001Y-78675001D03*
%TO.P,U2,4*%
%TO.N,Net-(U2-Pad4)*%
X104475001Y-86295001D03*
%TO.P,U2,7*%
%TO.N,Net-(R8-Pad1)*%
X112095001Y-81215001D03*
%TO.P,U2,3*%
%TO.N,Net-(R9-Pad2)*%
X104475001Y-83755001D03*
%TO.P,U2,6*%
%TO.N,Net-(U2-Pad6)*%
X112095001Y-83755001D03*
%TO.P,U2,2*%
%TO.N,Earth*%
X104475001Y-81215001D03*
%TO.P,U2,5*%
%TO.N,Net-(C6-Pad1)*%
X112095001Y-86295001D03*
D13*
%TO.P,U2,1*%
%TO.N,Net-(U2-Pad1)*%
X104475001Y-78675001D03*
%TD*%
D14*
%TO.P,U1,8*%
%TO.N,Net-(C4-Pad1)*%
X111745001Y-90425001D03*
%TO.P,U1,4*%
%TO.N,Net-(C3-Pad1)*%
X104125001Y-98045001D03*
%TO.P,U1,7*%
%TO.N,Net-(U1-Pad7)*%
X111745001Y-92965001D03*
%TO.P,U1,3*%
%TO.N,Net-(R6-Pad2)*%
X104125001Y-95505001D03*
%TO.P,U1,6*%
%TO.N,Net-(C1-Pad1)*%
X111745001Y-95505001D03*
%TO.P,U1,2*%
X104125001Y-92965001D03*
%TO.P,U1,5*%
%TO.N,Net-(C2-Pad1)*%
X111745001Y-98045001D03*
D15*
%TO.P,U1,1*%
%TO.N,Earth*%
X104125001Y-90425001D03*
%TD*%
D16*
%TO.P,S3,4*%
%TO.N,Earth*%
X123000001Y-90165001D03*
%TO.P,S3,2*%
%TO.N,Net-(S2-Pad3)*%
X116500001Y-90165001D03*
%TO.P,S3,3*%
%TO.N,Earth*%
X123000001Y-85665001D03*
D17*
%TO.P,S3,1*%
%TO.N,Net-(S2-Pad3)*%
X116500001Y-85665001D03*
%TD*%
D16*
%TO.P,S2,4*%
%TO.N,Net-(S2-Pad3)*%
X133420001Y-90165001D03*
%TO.P,S2,2*%
%TO.N,Net-(C4-Pad1)*%
X126920001Y-90165001D03*
%TO.P,S2,3*%
%TO.N,Net-(S2-Pad3)*%
X133420001Y-85665001D03*
D17*
%TO.P,S2,1*%
%TO.N,Net-(C4-Pad1)*%
X126920001Y-85665001D03*
%TD*%
D16*
%TO.P,S1,4*%
%TO.N,Earth*%
X133420001Y-82625001D03*
%TO.P,S1,2*%
%TO.N,Net-(R3-Pad2)*%
X126920001Y-82625001D03*
%TO.P,S1,3*%
%TO.N,Earth*%
X133420001Y-78125001D03*
D17*
%TO.P,S1,1*%
%TO.N,Net-(R3-Pad2)*%
X126920001Y-78125001D03*
%TD*%
D10*
%TO.P,R9,2*%
%TO.N,Net-(R9-Pad2)*%
X109055001Y-101675001D03*
D11*
%TO.P,R9,1*%
%TO.N,Net-(Q3-Pad2)*%
X103975001Y-101675001D03*
%TD*%
D10*
%TO.P,R8,2*%
%TO.N,Net-(R8-Pad2)*%
X119905001Y-93255001D03*
D11*
%TO.P,R8,1*%
%TO.N,Net-(R8-Pad1)*%
X114825001Y-93255001D03*
%TD*%
D10*
%TO.P,R6,2*%
%TO.N,Net-(R6-Pad2)*%
X119905001Y-96405001D03*
D11*
%TO.P,R6,1*%
%TO.N,Net-(D2-Pad1)*%
X114825001Y-96405001D03*
%TD*%
D10*
%TO.P,R5,2*%
%TO.N,Net-(C3-Pad1)*%
X117085001Y-101675001D03*
D11*
%TO.P,R5,1*%
%TO.N,Net-(C4-Pad1)*%
X112005001Y-101675001D03*
%TD*%
D10*
%TO.P,R4,2*%
%TO.N,Net-(C1-Pad1)*%
X129230000Y-93490000D03*
D11*
%TO.P,R4,1*%
%TO.N,Net-(C4-Pad1)*%
X124150000Y-93490000D03*
%TD*%
D10*
%TO.P,R3,2*%
%TO.N,Net-(R3-Pad2)*%
X141610000Y-78020000D03*
D11*
%TO.P,R3,1*%
%TO.N,Net-(C1-Pad1)*%
X136530000Y-78020000D03*
%TD*%
D10*
%TO.P,R2,2*%
%TO.N,Earth*%
X141580000Y-80870000D03*
D11*
%TO.P,R2,1*%
%TO.N,Net-(J1-Pad1)*%
X136500000Y-80870000D03*
%TD*%
D10*
%TO.P,R1,2*%
%TO.N,Net-(D1-Pad2)*%
X129470000Y-96610000D03*
D11*
%TO.P,R1,1*%
%TO.N,Net-(C4-Pad1)*%
X124390000Y-96610000D03*
%TD*%
D18*
%TO.P,Q3,1*%
%TO.N,Net-(LS1-Pad2)*%
X145280000Y-84030000D03*
D19*
%TO.P,Q3,3*%
%TO.N,Net-(Q2-Pad2)*%
X147820000Y-84030000D03*
%TO.P,Q3,2*%
%TO.N,Net-(Q3-Pad2)*%
X146550000Y-84030000D03*
%TD*%
D18*
%TO.P,Q2,1*%
%TO.N,Net-(LS1-Pad2)*%
X150970000Y-78900000D03*
D19*
%TO.P,Q2,3*%
%TO.N,Earth*%
X153510000Y-78900000D03*
%TO.P,Q2,2*%
%TO.N,Net-(Q2-Pad2)*%
X152240000Y-78900000D03*
%TD*%
D18*
%TO.P,Q1,1*%
%TO.N,Net-(C1-Pad1)*%
X136925001Y-89305001D03*
D19*
%TO.P,Q1,3*%
%TO.N,Earth*%
X139465001Y-89305001D03*
%TO.P,Q1,2*%
%TO.N,Net-(J1-Pad1)*%
X138195001Y-89305001D03*
%TD*%
D20*
%TO.P,LS1,2*%
%TO.N,Net-(LS1-Pad2)*%
X151810000Y-86460000D03*
D21*
%TO.P,LS1,1*%
%TO.N,Net-(C4-Pad1)*%
X151810000Y-89000000D03*
%TD*%
D20*
%TO.P,J2,2*%
%TO.N,Earth*%
X128160000Y-101500000D03*
D21*
%TO.P,J2,1*%
%TO.N,Net-(D2-Pad2)*%
X125620000Y-101500000D03*
%TD*%
D20*
%TO.P,J1,2*%
%TO.N,Earth*%
X147380000Y-78260000D03*
D21*
%TO.P,J1,1*%
%TO.N,Net-(J1-Pad1)*%
X144840000Y-78260000D03*
%TD*%
D14*
%TO.P,D4,2*%
%TO.N,Earth*%
X136480000Y-98280000D03*
D15*
%TO.P,D4,1*%
%TO.N,Net-(C6-Pad1)*%
X133940000Y-98280000D03*
%TD*%
D22*
%TO.P,D3,2*%
%TO.N,Net-(D3-Pad2)*%
X136630000Y-102320000D03*
D23*
%TO.P,D3,1*%
%TO.N,Net-(D2-Pad1)*%
X134090000Y-102320000D03*
%TD*%
D22*
%TO.P,D2,2*%
%TO.N,Net-(D2-Pad2)*%
X136620000Y-94580000D03*
D23*
%TO.P,D2,1*%
%TO.N,Net-(D2-Pad1)*%
X134080000Y-94580000D03*
%TD*%
D24*
%TO.P,D1,2*%
%TO.N,Net-(D1-Pad2)*%
X148220000Y-89560000D03*
D23*
%TO.P,D1,1*%
%TO.N,Earth*%
X145680000Y-89560000D03*
%TD*%
D25*
%TO.P,C6,2*%
%TO.N,Earth*%
X144720000Y-94880000D03*
D26*
%TO.P,C6,1*%
%TO.N,Net-(C6-Pad1)*%
X142720000Y-94880000D03*
%TD*%
D25*
%TO.P,C5,2*%
%TO.N,Earth*%
X150290000Y-101150000D03*
D26*
%TO.P,C5,1*%
%TO.N,Net-(C4-Pad1)*%
X148290000Y-101150000D03*
%TD*%
D27*
%TO.P,C4,2*%
%TO.N,Earth*%
X145040000Y-101510000D03*
%TO.P,C4,1*%
%TO.N,Net-(C4-Pad1)*%
X142540000Y-101510000D03*
%TD*%
D25*
%TO.P,C3,2*%
%TO.N,Earth*%
X150250000Y-95080000D03*
D26*
%TO.P,C3,1*%
%TO.N,Net-(C3-Pad1)*%
X148250000Y-95080000D03*
%TD*%
D27*
%TO.P,C2,2*%
%TO.N,Earth*%
X145020000Y-98940000D03*
%TO.P,C2,1*%
%TO.N,Net-(C2-Pad1)*%
X142520000Y-98940000D03*
%TD*%
D16*
%TO.P,C1,4*%
%TO.N,N/C*%
X123000001Y-82625001D03*
%TO.P,C1,2*%
%TO.N,Earth*%
X116500001Y-82625001D03*
%TO.P,C1,3*%
%TO.N,N/C*%
X123000001Y-78125001D03*
D17*
%TO.P,C1,1*%
%TO.N,Net-(C1-Pad1)*%
X116500001Y-78125001D03*
%TD*%
D28*
%TO.N,*%
X101000000Y-72000000D03*
X157000000Y-72000000D03*
X157000000Y-108000000D03*
X101000000Y-108000000D03*
%TD*%
D29*
%TO.N,Earth*%
X144720000Y-90520000D02*
X145680000Y-89560000D01*
X144720000Y-94880000D02*
X144720000Y-90520000D01*
X145020000Y-95180000D02*
X144720000Y-94880000D01*
X145020000Y-98940000D02*
X145020000Y-95180000D01*
X130480000Y-101500000D02*
X128160000Y-101500000D01*
X136480000Y-98280000D02*
X136480000Y-100220000D01*
X136200000Y-100500000D02*
X131480000Y-100500000D01*
X136480000Y-100220000D02*
X136200000Y-100500000D01*
X131480000Y-100500000D02*
X130480000Y-101500000D01*
%TO.N,Net-(C1-Pad1)*%
X136530000Y-78020000D02*
X135100000Y-78020000D01*
X135100000Y-78020000D02*
X134870000Y-78250000D01*
X134870000Y-78250000D02*
X134870000Y-88670000D01*
X135505001Y-89305001D02*
X136925001Y-89305001D01*
X134870000Y-88670000D02*
X135505001Y-89305001D01*
X103910000Y-92750000D02*
X104125001Y-92965001D01*
X101280000Y-92750000D02*
X103910000Y-92750000D01*
X100599990Y-92069990D02*
X101280000Y-92750000D01*
X100599990Y-75460010D02*
X100599990Y-92069990D01*
X101800000Y-74260000D02*
X100599990Y-75460010D01*
X115260000Y-74260000D02*
X101800000Y-74260000D01*
X116500001Y-75500001D02*
X115260000Y-74260000D01*
X116500001Y-78125001D02*
X116500001Y-75500001D01*
X128100000Y-94620000D02*
X129230000Y-93490000D01*
X113150000Y-94620000D02*
X128100000Y-94620000D01*
X112264999Y-95505001D02*
X113150000Y-94620000D01*
X111745001Y-95505001D02*
X112264999Y-95505001D01*
%TO.N,Net-(C2-Pad1)*%
X118255001Y-98045001D02*
X111745001Y-98045001D01*
X118520000Y-98310000D02*
X118255001Y-98045001D01*
X118520000Y-104060000D02*
X118520000Y-98310000D01*
X119120010Y-104660010D02*
X118520000Y-104060000D01*
X143269990Y-104660010D02*
X119120010Y-104660010D01*
X143900000Y-104030000D02*
X143269990Y-104660010D01*
X143900000Y-99170000D02*
X143900000Y-104030000D01*
X143670000Y-98940000D02*
X143900000Y-99170000D01*
X142520000Y-98940000D02*
X143670000Y-98940000D01*
%TO.N,Net-(C3-Pad1)*%
X117085001Y-104575001D02*
X117085001Y-101675001D01*
X152350000Y-105330000D02*
X117840000Y-105330000D01*
X153960000Y-103720000D02*
X152350000Y-105330000D01*
X117840000Y-105330000D02*
X117085001Y-104575001D01*
X153960000Y-93310000D02*
X153960000Y-103720000D01*
X153160000Y-92510000D02*
X153960000Y-93310000D01*
X148810000Y-92510000D02*
X153160000Y-92510000D01*
X148250000Y-93070000D02*
X148810000Y-92510000D01*
X148250000Y-95080000D02*
X148250000Y-93070000D01*
%TO.N,Net-(C4-Pad1)*%
X126920001Y-90165001D02*
X126920001Y-85665001D01*
X123230000Y-97770000D02*
X124390000Y-96610000D01*
X123230000Y-103520000D02*
X123230000Y-97770000D01*
X141000000Y-104210000D02*
X123920000Y-104210000D01*
X142540000Y-102670000D02*
X141000000Y-104210000D01*
X123920000Y-104210000D02*
X123230000Y-103520000D01*
X142540000Y-101510000D02*
X142540000Y-102670000D01*
%TO.N,Net-(C6-Pad1)*%
X136600000Y-83450000D02*
X136600000Y-82730000D01*
X137434999Y-81895001D02*
X142644999Y-81895001D01*
X136600000Y-82730000D02*
X137434999Y-81895001D01*
X142644999Y-81895001D02*
X143250000Y-82500002D01*
X143250000Y-94350000D02*
X142720000Y-94880000D01*
X143250000Y-82500002D02*
X143250000Y-94350000D01*
%TO.N,Net-(D2-Pad1)*%
X134090000Y-102320000D02*
X135459991Y-100950009D01*
X134820000Y-91810000D02*
X134080000Y-92550000D01*
X135459991Y-100950009D02*
X138109991Y-100950009D01*
X138109991Y-100950009D02*
X138780000Y-100280000D01*
X138780000Y-100280000D02*
X138780000Y-93270000D01*
X138780000Y-93270000D02*
X137320000Y-91810000D01*
X137320000Y-91810000D02*
X134820000Y-91810000D01*
X134080000Y-92550000D02*
X134080000Y-94580000D01*
%TO.N,Net-(D3-Pad2)*%
X140980001Y-84149999D02*
X140980001Y-101459999D01*
X141680000Y-83450000D02*
X140980001Y-84149999D01*
X140120000Y-102320000D02*
X136630000Y-102320000D01*
X140980001Y-101459999D02*
X140120000Y-102320000D01*
%TO.N,Net-(J1-Pad1)*%
X138195001Y-87275001D02*
X138195001Y-89305001D01*
X137910000Y-86990000D02*
X138195001Y-87275001D01*
X135780000Y-86990000D02*
X137910000Y-86990000D01*
X135380000Y-86590000D02*
X135780000Y-86990000D01*
X135380000Y-81990000D02*
X135380000Y-86590000D01*
X136500000Y-80870000D02*
X135380000Y-81990000D01*
%TO.N,Net-(Q3-Pad2)*%
X103975001Y-105285001D02*
X103975001Y-101675001D01*
X105210000Y-106520000D02*
X103975001Y-105285001D01*
X154530000Y-106520000D02*
X105210000Y-106520000D01*
X155360000Y-105690000D02*
X154530000Y-106520000D01*
X155360000Y-82950000D02*
X155360000Y-105690000D01*
X154850000Y-82440000D02*
X155360000Y-82950000D01*
X146910000Y-82440000D02*
X154850000Y-82440000D01*
X146550000Y-82800000D02*
X146910000Y-82440000D01*
X146550000Y-84030000D02*
X146550000Y-82800000D01*
%TO.N,Net-(R3-Pad2)*%
X141610000Y-78020000D02*
X141610000Y-76400000D01*
X141610000Y-76400000D02*
X141160000Y-75950000D01*
X141160000Y-75950000D02*
X127660000Y-75950000D01*
X126920001Y-76689999D02*
X126920001Y-78125001D01*
X127660000Y-75950000D02*
X126920001Y-76689999D01*
%TO.N,Net-(R8-Pad2)*%
X112095001Y-78675001D02*
X113925001Y-78675001D01*
X113925001Y-78675001D02*
X114930000Y-79680000D01*
X114930000Y-79680000D02*
X114930000Y-91000000D01*
X114930000Y-91000000D02*
X115560000Y-91630000D01*
X115560000Y-91630000D02*
X119550000Y-91630000D01*
X119905001Y-91985001D02*
X119905001Y-93255001D01*
X119550000Y-91630000D02*
X119905001Y-91985001D01*
%TO.N,Net-(R8-Pad1)*%
X114479990Y-92909990D02*
X114825001Y-93255001D01*
X114479990Y-82000000D02*
X114479990Y-92909990D01*
X113694991Y-81215001D02*
X114479990Y-82000000D01*
X112095001Y-81215001D02*
X113694991Y-81215001D01*
%TO.N,Net-(S2-Pad3)*%
X133420001Y-90165001D02*
X133420001Y-85665001D01*
X116500001Y-85665001D02*
X116500001Y-90165001D01*
X133420001Y-84460001D02*
X133420001Y-85665001D01*
X132659002Y-83699002D02*
X133420001Y-84460001D01*
X117300998Y-83699002D02*
X132659002Y-83699002D01*
X116500001Y-84499999D02*
X117300998Y-83699002D01*
X116500001Y-85665001D02*
X116500001Y-84499999D01*
%TD*%
D30*
%TO.N,Earth*%
X98706654Y-72695679D02*
X98886440Y-73129721D01*
X99147450Y-73520349D01*
X99479651Y-73852550D01*
X99870279Y-74113560D01*
X100304321Y-74293346D01*
X100627557Y-74357641D01*
X100088992Y-74896207D01*
X100059989Y-74920009D01*
X100027170Y-74960000D01*
X99965016Y-75035734D01*
X99894445Y-75167763D01*
X99894444Y-75167764D01*
X99850987Y-75311025D01*
X99839990Y-75422678D01*
X99839990Y-75422688D01*
X99836314Y-75460010D01*
X99839990Y-75497332D01*
X99839991Y-92032657D01*
X99836314Y-92069990D01*
X99839991Y-92107323D01*
X99850988Y-92218976D01*
X99857061Y-92238997D01*
X99894444Y-92362236D01*
X99965016Y-92494266D01*
X100027170Y-92570000D01*
X100059990Y-92609991D01*
X100088988Y-92633789D01*
X100716201Y-93261002D01*
X100739999Y-93290001D01*
X100855724Y-93384974D01*
X100987753Y-93455546D01*
X101131014Y-93499003D01*
X101242667Y-93510000D01*
X101242676Y-93510000D01*
X101279999Y-93513676D01*
X101317322Y-93510000D01*
X102797515Y-93510000D01*
X102853321Y-93644728D01*
X103010364Y-93879760D01*
X103210242Y-94079638D01*
X103442760Y-94235001D01*
X103210242Y-94390364D01*
X103010364Y-94590242D01*
X102853321Y-94825274D01*
X102745148Y-95086427D01*
X102690001Y-95363666D01*
X102690001Y-95646336D01*
X102745148Y-95923575D01*
X102853321Y-96184728D01*
X103010364Y-96419760D01*
X103210242Y-96619638D01*
X103442760Y-96775001D01*
X103210242Y-96930364D01*
X103010364Y-97130242D01*
X102853321Y-97365274D01*
X102745148Y-97626427D01*
X102690001Y-97903666D01*
X102690001Y-98186336D01*
X102745148Y-98463575D01*
X102853321Y-98724728D01*
X103010364Y-98959760D01*
X103210242Y-99159638D01*
X103445274Y-99316681D01*
X103706427Y-99424854D01*
X103983666Y-99480001D01*
X104266336Y-99480001D01*
X104543575Y-99424854D01*
X104804728Y-99316681D01*
X105039760Y-99159638D01*
X105239638Y-98959760D01*
X105396681Y-98724728D01*
X105504854Y-98463575D01*
X105560001Y-98186336D01*
X105560001Y-97903666D01*
X105504854Y-97626427D01*
X105396681Y-97365274D01*
X105239638Y-97130242D01*
X105039760Y-96930364D01*
X104807242Y-96775001D01*
X105039760Y-96619638D01*
X105239638Y-96419760D01*
X105396681Y-96184728D01*
X105504854Y-95923575D01*
X105560001Y-95646336D01*
X105560001Y-95363666D01*
X105504854Y-95086427D01*
X105396681Y-94825274D01*
X105239638Y-94590242D01*
X105039760Y-94390364D01*
X104807242Y-94235001D01*
X105039760Y-94079638D01*
X105239638Y-93879760D01*
X105396681Y-93644728D01*
X105504854Y-93383575D01*
X105560001Y-93106336D01*
X105560001Y-92823666D01*
X105504854Y-92546427D01*
X105396681Y-92285274D01*
X105239638Y-92050242D01*
X105041040Y-91851644D01*
X105049483Y-91850813D01*
X105169181Y-91814503D01*
X105279495Y-91755538D01*
X105376186Y-91676186D01*
X105455538Y-91579495D01*
X105514503Y-91469181D01*
X105550813Y-91349483D01*
X105563073Y-91225001D01*
X105560001Y-90710751D01*
X105401251Y-90552001D01*
X104252001Y-90552001D01*
X104252001Y-90572001D01*
X103998001Y-90572001D01*
X103998001Y-90552001D01*
X102848751Y-90552001D01*
X102690001Y-90710751D01*
X102686929Y-91225001D01*
X102699189Y-91349483D01*
X102735499Y-91469181D01*
X102794464Y-91579495D01*
X102873816Y-91676186D01*
X102970507Y-91755538D01*
X103080821Y-91814503D01*
X103200519Y-91850813D01*
X103208962Y-91851644D01*
X103070606Y-91990000D01*
X101594802Y-91990000D01*
X101359990Y-91755189D01*
X101359990Y-89625001D01*
X102686929Y-89625001D01*
X102690001Y-90139251D01*
X102848751Y-90298001D01*
X103998001Y-90298001D01*
X103998001Y-89148751D01*
X104252001Y-89148751D01*
X104252001Y-90298001D01*
X105401251Y-90298001D01*
X105560001Y-90139251D01*
X105563073Y-89625001D01*
X105550813Y-89500519D01*
X105514503Y-89380821D01*
X105455538Y-89270507D01*
X105376186Y-89173816D01*
X105279495Y-89094464D01*
X105169181Y-89035499D01*
X105049483Y-88999189D01*
X104925001Y-88986929D01*
X104410751Y-88990001D01*
X104252001Y-89148751D01*
X103998001Y-89148751D01*
X103839251Y-88990001D01*
X103325001Y-88986929D01*
X103200519Y-88999189D01*
X103080821Y-89035499D01*
X102970507Y-89094464D01*
X102873816Y-89173816D01*
X102794464Y-89270507D01*
X102735499Y-89380821D01*
X102699189Y-89500519D01*
X102686929Y-89625001D01*
X101359990Y-89625001D01*
X101359990Y-83755001D01*
X102633058Y-83755001D01*
X102660765Y-84036310D01*
X102742819Y-84306809D01*
X102876069Y-84556102D01*
X103055393Y-84774609D01*
X103273900Y-84953933D01*
X103406859Y-85025001D01*
X103273900Y-85096069D01*
X103055393Y-85275393D01*
X102876069Y-85493900D01*
X102742819Y-85743193D01*
X102660765Y-86013692D01*
X102633058Y-86295001D01*
X102660765Y-86576310D01*
X102742819Y-86846809D01*
X102876069Y-87096102D01*
X103055393Y-87314609D01*
X103273900Y-87493933D01*
X103523193Y-87627183D01*
X103793692Y-87709237D01*
X104004509Y-87730001D01*
X104945493Y-87730001D01*
X105156310Y-87709237D01*
X105426809Y-87627183D01*
X105676102Y-87493933D01*
X105894609Y-87314609D01*
X106073933Y-87096102D01*
X106207183Y-86846809D01*
X106289237Y-86576310D01*
X106316944Y-86295001D01*
X106289237Y-86013692D01*
X106207183Y-85743193D01*
X106073933Y-85493900D01*
X105894609Y-85275393D01*
X105676102Y-85096069D01*
X105543143Y-85025001D01*
X105676102Y-84953933D01*
X105894609Y-84774609D01*
X106073933Y-84556102D01*
X106207183Y-84306809D01*
X106289237Y-84036310D01*
X106316944Y-83755001D01*
X106289237Y-83473692D01*
X106207183Y-83203193D01*
X106073933Y-82953900D01*
X105894609Y-82735393D01*
X105676102Y-82556069D01*
X105548260Y-82487736D01*
X105777840Y-82337602D01*
X105979501Y-82139896D01*
X106138716Y-81906647D01*
X106249368Y-81646819D01*
X106266905Y-81564040D01*
X106144916Y-81342001D01*
X104602001Y-81342001D01*
X104602001Y-81362001D01*
X104348001Y-81362001D01*
X104348001Y-81342001D01*
X102805086Y-81342001D01*
X102683097Y-81564040D01*
X102700634Y-81646819D01*
X102811286Y-81906647D01*
X102970501Y-82139896D01*
X103172162Y-82337602D01*
X103401742Y-82487736D01*
X103273900Y-82556069D01*
X103055393Y-82735393D01*
X102876069Y-82953900D01*
X102742819Y-83203193D01*
X102660765Y-83473692D01*
X102633058Y-83755001D01*
X101359990Y-83755001D01*
X101359990Y-77875001D01*
X102636929Y-77875001D01*
X102636929Y-79475001D01*
X102649189Y-79599483D01*
X102685499Y-79719181D01*
X102744464Y-79829495D01*
X102823816Y-79926186D01*
X102920507Y-80005538D01*
X103030821Y-80064503D01*
X103150519Y-80100813D01*
X103162388Y-80101982D01*
X102970501Y-80290106D01*
X102811286Y-80523355D01*
X102700634Y-80783183D01*
X102683097Y-80865962D01*
X102805086Y-81088001D01*
X104348001Y-81088001D01*
X104348001Y-81068001D01*
X104602001Y-81068001D01*
X104602001Y-81088001D01*
X106144916Y-81088001D01*
X106266905Y-80865962D01*
X106249368Y-80783183D01*
X106138716Y-80523355D01*
X105979501Y-80290106D01*
X105787614Y-80101982D01*
X105799483Y-80100813D01*
X105919181Y-80064503D01*
X106029495Y-80005538D01*
X106126186Y-79926186D01*
X106205538Y-79829495D01*
X106264503Y-79719181D01*
X106300813Y-79599483D01*
X106313073Y-79475001D01*
X106313073Y-77875001D01*
X106300813Y-77750519D01*
X106264503Y-77630821D01*
X106205538Y-77520507D01*
X106126186Y-77423816D01*
X106029495Y-77344464D01*
X105919181Y-77285499D01*
X105799483Y-77249189D01*
X105675001Y-77236929D01*
X103275001Y-77236929D01*
X103150519Y-77249189D01*
X103030821Y-77285499D01*
X102920507Y-77344464D01*
X102823816Y-77423816D01*
X102744464Y-77520507D01*
X102685499Y-77630821D01*
X102649189Y-77750519D01*
X102636929Y-77875001D01*
X101359990Y-77875001D01*
X101359990Y-75774811D01*
X102114803Y-75020000D01*
X114945199Y-75020000D01*
X115740002Y-75814804D01*
X115740002Y-76739012D01*
X115626519Y-76750189D01*
X115506821Y-76786499D01*
X115396507Y-76845464D01*
X115299816Y-76924816D01*
X115220464Y-77021507D01*
X115161499Y-77131821D01*
X115125189Y-77251519D01*
X115112929Y-77376001D01*
X115112929Y-78788127D01*
X114488805Y-78164003D01*
X114465002Y-78135000D01*
X114349277Y-78040027D01*
X114217248Y-77969455D01*
X114073987Y-77925998D01*
X113962334Y-77915001D01*
X113962323Y-77915001D01*
X113925001Y-77911325D01*
X113887679Y-77915001D01*
X113715902Y-77915001D01*
X113693933Y-77873900D01*
X113514609Y-77655393D01*
X113296102Y-77476069D01*
X113046809Y-77342819D01*
X112776310Y-77260765D01*
X112565493Y-77240001D01*
X111624509Y-77240001D01*
X111413692Y-77260765D01*
X111143193Y-77342819D01*
X110893900Y-77476069D01*
X110675393Y-77655393D01*
X110496069Y-77873900D01*
X110362819Y-78123193D01*
X110280765Y-78393692D01*
X110253058Y-78675001D01*
X110280765Y-78956310D01*
X110362819Y-79226809D01*
X110496069Y-79476102D01*
X110675393Y-79694609D01*
X110893900Y-79873933D01*
X111026859Y-79945001D01*
X110893900Y-80016069D01*
X110675393Y-80195393D01*
X110496069Y-80413900D01*
X110362819Y-80663193D01*
X110280765Y-80933692D01*
X110253058Y-81215001D01*
X110280765Y-81496310D01*
X110362819Y-81766809D01*
X110496069Y-82016102D01*
X110675393Y-82234609D01*
X110893900Y-82413933D01*
X111026859Y-82485001D01*
X110893900Y-82556069D01*
X110675393Y-82735393D01*
X110496069Y-82953900D01*
X110362819Y-83203193D01*
X110280765Y-83473692D01*
X110253058Y-83755001D01*
X110280765Y-84036310D01*
X110362819Y-84306809D01*
X110496069Y-84556102D01*
X110675393Y-84774609D01*
X110893900Y-84953933D01*
X111026859Y-85025001D01*
X110893900Y-85096069D01*
X110675393Y-85275393D01*
X110496069Y-85493900D01*
X110362819Y-85743193D01*
X110280765Y-86013692D01*
X110253058Y-86295001D01*
X110280765Y-86576310D01*
X110362819Y-86846809D01*
X110496069Y-87096102D01*
X110675393Y-87314609D01*
X110893900Y-87493933D01*
X111143193Y-87627183D01*
X111413692Y-87709237D01*
X111624509Y-87730001D01*
X112565493Y-87730001D01*
X112776310Y-87709237D01*
X113046809Y-87627183D01*
X113296102Y-87493933D01*
X113514609Y-87314609D01*
X113693933Y-87096102D01*
X113719990Y-87047352D01*
X113719991Y-92505830D01*
X113641940Y-92622642D01*
X113541305Y-92865596D01*
X113490001Y-93123515D01*
X113490001Y-93386487D01*
X113541305Y-93644406D01*
X113630607Y-93860000D01*
X113187322Y-93860000D01*
X113149999Y-93856324D01*
X113112676Y-93860000D01*
X113112667Y-93860000D01*
X113001014Y-93870997D01*
X112857753Y-93914454D01*
X112787269Y-93952129D01*
X112859638Y-93879760D01*
X113016681Y-93644728D01*
X113124854Y-93383575D01*
X113180001Y-93106336D01*
X113180001Y-92823666D01*
X113124854Y-92546427D01*
X113016681Y-92285274D01*
X112859638Y-92050242D01*
X112659760Y-91850364D01*
X112427242Y-91695001D01*
X112659760Y-91539638D01*
X112859638Y-91339760D01*
X113016681Y-91104728D01*
X113124854Y-90843575D01*
X113180001Y-90566336D01*
X113180001Y-90283666D01*
X113124854Y-90006427D01*
X113016681Y-89745274D01*
X112859638Y-89510242D01*
X112659760Y-89310364D01*
X112424728Y-89153321D01*
X112163575Y-89045148D01*
X111886336Y-88990001D01*
X111603666Y-88990001D01*
X111326427Y-89045148D01*
X111065274Y-89153321D01*
X110830242Y-89310364D01*
X110630364Y-89510242D01*
X110473321Y-89745274D01*
X110365148Y-90006427D01*
X110310001Y-90283666D01*
X110310001Y-90566336D01*
X110365148Y-90843575D01*
X110473321Y-91104728D01*
X110630364Y-91339760D01*
X110830242Y-91539638D01*
X111062760Y-91695001D01*
X110830242Y-91850364D01*
X110630364Y-92050242D01*
X110473321Y-92285274D01*
X110365148Y-92546427D01*
X110310001Y-92823666D01*
X110310001Y-93106336D01*
X110365148Y-93383575D01*
X110473321Y-93644728D01*
X110630364Y-93879760D01*
X110830242Y-94079638D01*
X111062760Y-94235001D01*
X110830242Y-94390364D01*
X110630364Y-94590242D01*
X110473321Y-94825274D01*
X110365148Y-95086427D01*
X110310001Y-95363666D01*
X110310001Y-95646336D01*
X110365148Y-95923575D01*
X110473321Y-96184728D01*
X110630364Y-96419760D01*
X110830242Y-96619638D01*
X111062760Y-96775001D01*
X110830242Y-96930364D01*
X110630364Y-97130242D01*
X110473321Y-97365274D01*
X110365148Y-97626427D01*
X110310001Y-97903666D01*
X110310001Y-98186336D01*
X110365148Y-98463575D01*
X110473321Y-98724728D01*
X110630364Y-98959760D01*
X110830242Y-99159638D01*
X111065274Y-99316681D01*
X111326427Y-99424854D01*
X111603666Y-99480001D01*
X111886336Y-99480001D01*
X112163575Y-99424854D01*
X112424728Y-99316681D01*
X112659760Y-99159638D01*
X112859638Y-98959760D01*
X112963044Y-98805001D01*
X117760001Y-98805001D01*
X117760001Y-100520431D01*
X117717360Y-100491940D01*
X117474406Y-100391305D01*
X117216487Y-100340001D01*
X116953515Y-100340001D01*
X116695596Y-100391305D01*
X116452642Y-100491940D01*
X116233988Y-100638039D01*
X116048039Y-100823988D01*
X115901940Y-101042642D01*
X115801305Y-101285596D01*
X115750001Y-101543515D01*
X115750001Y-101806487D01*
X115801305Y-102064406D01*
X115901940Y-102307360D01*
X116048039Y-102526014D01*
X116233988Y-102711963D01*
X116325002Y-102772776D01*
X116325001Y-104537678D01*
X116321325Y-104575001D01*
X116325001Y-104612323D01*
X116325001Y-104612333D01*
X116335998Y-104723986D01*
X116372699Y-104844974D01*
X116379455Y-104867247D01*
X116450027Y-104999277D01*
X116481604Y-105037753D01*
X116545000Y-105115002D01*
X116574003Y-105138804D01*
X117195198Y-105760000D01*
X105524802Y-105760000D01*
X104735001Y-104970200D01*
X104735001Y-102772776D01*
X104826014Y-102711963D01*
X105011963Y-102526014D01*
X105158062Y-102307360D01*
X105258697Y-102064406D01*
X105310001Y-101806487D01*
X105310001Y-101543515D01*
X107720001Y-101543515D01*
X107720001Y-101806487D01*
X107771305Y-102064406D01*
X107871940Y-102307360D01*
X108018039Y-102526014D01*
X108203988Y-102711963D01*
X108422642Y-102858062D01*
X108665596Y-102958697D01*
X108923515Y-103010001D01*
X109186487Y-103010001D01*
X109444406Y-102958697D01*
X109687360Y-102858062D01*
X109906014Y-102711963D01*
X110091963Y-102526014D01*
X110238062Y-102307360D01*
X110338697Y-102064406D01*
X110390001Y-101806487D01*
X110390001Y-101543515D01*
X110670001Y-101543515D01*
X110670001Y-101806487D01*
X110721305Y-102064406D01*
X110821940Y-102307360D01*
X110968039Y-102526014D01*
X111153988Y-102711963D01*
X111372642Y-102858062D01*
X111615596Y-102958697D01*
X111873515Y-103010001D01*
X112136487Y-103010001D01*
X112394406Y-102958697D01*
X112637360Y-102858062D01*
X112856014Y-102711963D01*
X113041963Y-102526014D01*
X113188062Y-102307360D01*
X113288697Y-102064406D01*
X113340001Y-101806487D01*
X113340001Y-101543515D01*
X113288697Y-101285596D01*
X113188062Y-101042642D01*
X113041963Y-100823988D01*
X112856014Y-100638039D01*
X112637360Y-100491940D01*
X112394406Y-100391305D01*
X112136487Y-100340001D01*
X111873515Y-100340001D01*
X111615596Y-100391305D01*
X111372642Y-100491940D01*
X111153988Y-100638039D01*
X110968039Y-100823988D01*
X110821940Y-101042642D01*
X110721305Y-101285596D01*
X110670001Y-101543515D01*
X110390001Y-101543515D01*
X110338697Y-101285596D01*
X110238062Y-101042642D01*
X110091963Y-100823988D01*
X109906014Y-100638039D01*
X109687360Y-100491940D01*
X109444406Y-100391305D01*
X109186487Y-100340001D01*
X108923515Y-100340001D01*
X108665596Y-100391305D01*
X108422642Y-100491940D01*
X108203988Y-100638039D01*
X108018039Y-100823988D01*
X107871940Y-101042642D01*
X107771305Y-101285596D01*
X107720001Y-101543515D01*
X105310001Y-101543515D01*
X105258697Y-101285596D01*
X105158062Y-101042642D01*
X105011963Y-100823988D01*
X104826014Y-100638039D01*
X104607360Y-100491940D01*
X104364406Y-100391305D01*
X104106487Y-100340001D01*
X103843515Y-100340001D01*
X103585596Y-100391305D01*
X103342642Y-100491940D01*
X103123988Y-100638039D01*
X102938039Y-100823988D01*
X102791940Y-101042642D01*
X102691305Y-101285596D01*
X102640001Y-101543515D01*
X102640001Y-101806487D01*
X102691305Y-102064406D01*
X102791940Y-102307360D01*
X102938039Y-102526014D01*
X103123988Y-102711963D01*
X103215002Y-102772776D01*
X103215001Y-105247678D01*
X103211325Y-105285001D01*
X103215001Y-105322323D01*
X103215001Y-105322333D01*
X103225998Y-105433986D01*
X103269455Y-105577247D01*
X103340027Y-105709277D01*
X103376957Y-105754276D01*
X103435000Y-105825002D01*
X103464004Y-105848805D01*
X104646201Y-107031003D01*
X104669999Y-107060001D01*
X104785724Y-107154974D01*
X104917753Y-107225546D01*
X105061014Y-107269003D01*
X105172667Y-107280000D01*
X105172676Y-107280000D01*
X105209999Y-107283676D01*
X105247322Y-107280000D01*
X154492678Y-107280000D01*
X154530000Y-107283676D01*
X154567322Y-107280000D01*
X154567333Y-107280000D01*
X154678986Y-107269003D01*
X154727361Y-107254329D01*
X154706654Y-107304321D01*
X154615000Y-107765098D01*
X154615000Y-108234902D01*
X154706654Y-108695679D01*
X154886440Y-109129721D01*
X155147450Y-109520349D01*
X155479651Y-109852550D01*
X155870279Y-110113560D01*
X156304321Y-110293346D01*
X156538867Y-110340000D01*
X101461133Y-110340000D01*
X101695679Y-110293346D01*
X102129721Y-110113560D01*
X102520349Y-109852550D01*
X102852550Y-109520349D01*
X103113560Y-109129721D01*
X103293346Y-108695679D01*
X103385000Y-108234902D01*
X103385000Y-107765098D01*
X103293346Y-107304321D01*
X103113560Y-106870279D01*
X102852550Y-106479651D01*
X102520349Y-106147450D01*
X102129721Y-105886440D01*
X101695679Y-105706654D01*
X101234902Y-105615000D01*
X100765098Y-105615000D01*
X100304321Y-105706654D01*
X99870279Y-105886440D01*
X99479651Y-106147450D01*
X99147450Y-106479651D01*
X98886440Y-106870279D01*
X98706654Y-107304321D01*
X98660000Y-107538867D01*
X98660000Y-72461133D01*
X98706654Y-72695679D01*
%TA.AperFunction,Conductor*%
D31*
G36*
X98706654Y-72695679D02*
G01*
X98886440Y-73129721D01*
X99147450Y-73520349D01*
X99479651Y-73852550D01*
X99870279Y-74113560D01*
X100304321Y-74293346D01*
X100627557Y-74357641D01*
X100088992Y-74896207D01*
X100059989Y-74920009D01*
X100027170Y-74960000D01*
X99965016Y-75035734D01*
X99894445Y-75167763D01*
X99894444Y-75167764D01*
X99850987Y-75311025D01*
X99839990Y-75422678D01*
X99839990Y-75422688D01*
X99836314Y-75460010D01*
X99839990Y-75497332D01*
X99839991Y-92032657D01*
X99836314Y-92069990D01*
X99839991Y-92107323D01*
X99850988Y-92218976D01*
X99857061Y-92238997D01*
X99894444Y-92362236D01*
X99965016Y-92494266D01*
X100027170Y-92570000D01*
X100059990Y-92609991D01*
X100088988Y-92633789D01*
X100716201Y-93261002D01*
X100739999Y-93290001D01*
X100855724Y-93384974D01*
X100987753Y-93455546D01*
X101131014Y-93499003D01*
X101242667Y-93510000D01*
X101242676Y-93510000D01*
X101279999Y-93513676D01*
X101317322Y-93510000D01*
X102797515Y-93510000D01*
X102853321Y-93644728D01*
X103010364Y-93879760D01*
X103210242Y-94079638D01*
X103442760Y-94235001D01*
X103210242Y-94390364D01*
X103010364Y-94590242D01*
X102853321Y-94825274D01*
X102745148Y-95086427D01*
X102690001Y-95363666D01*
X102690001Y-95646336D01*
X102745148Y-95923575D01*
X102853321Y-96184728D01*
X103010364Y-96419760D01*
X103210242Y-96619638D01*
X103442760Y-96775001D01*
X103210242Y-96930364D01*
X103010364Y-97130242D01*
X102853321Y-97365274D01*
X102745148Y-97626427D01*
X102690001Y-97903666D01*
X102690001Y-98186336D01*
X102745148Y-98463575D01*
X102853321Y-98724728D01*
X103010364Y-98959760D01*
X103210242Y-99159638D01*
X103445274Y-99316681D01*
X103706427Y-99424854D01*
X103983666Y-99480001D01*
X104266336Y-99480001D01*
X104543575Y-99424854D01*
X104804728Y-99316681D01*
X105039760Y-99159638D01*
X105239638Y-98959760D01*
X105396681Y-98724728D01*
X105504854Y-98463575D01*
X105560001Y-98186336D01*
X105560001Y-97903666D01*
X105504854Y-97626427D01*
X105396681Y-97365274D01*
X105239638Y-97130242D01*
X105039760Y-96930364D01*
X104807242Y-96775001D01*
X105039760Y-96619638D01*
X105239638Y-96419760D01*
X105396681Y-96184728D01*
X105504854Y-95923575D01*
X105560001Y-95646336D01*
X105560001Y-95363666D01*
X105504854Y-95086427D01*
X105396681Y-94825274D01*
X105239638Y-94590242D01*
X105039760Y-94390364D01*
X104807242Y-94235001D01*
X105039760Y-94079638D01*
X105239638Y-93879760D01*
X105396681Y-93644728D01*
X105504854Y-93383575D01*
X105560001Y-93106336D01*
X105560001Y-92823666D01*
X105504854Y-92546427D01*
X105396681Y-92285274D01*
X105239638Y-92050242D01*
X105041040Y-91851644D01*
X105049483Y-91850813D01*
X105169181Y-91814503D01*
X105279495Y-91755538D01*
X105376186Y-91676186D01*
X105455538Y-91579495D01*
X105514503Y-91469181D01*
X105550813Y-91349483D01*
X105563073Y-91225001D01*
X105560001Y-90710751D01*
X105401251Y-90552001D01*
X104252001Y-90552001D01*
X104252001Y-90572001D01*
X103998001Y-90572001D01*
X103998001Y-90552001D01*
X102848751Y-90552001D01*
X102690001Y-90710751D01*
X102686929Y-91225001D01*
X102699189Y-91349483D01*
X102735499Y-91469181D01*
X102794464Y-91579495D01*
X102873816Y-91676186D01*
X102970507Y-91755538D01*
X103080821Y-91814503D01*
X103200519Y-91850813D01*
X103208962Y-91851644D01*
X103070606Y-91990000D01*
X101594802Y-91990000D01*
X101359990Y-91755189D01*
X101359990Y-89625001D01*
X102686929Y-89625001D01*
X102690001Y-90139251D01*
X102848751Y-90298001D01*
X103998001Y-90298001D01*
X103998001Y-89148751D01*
X104252001Y-89148751D01*
X104252001Y-90298001D01*
X105401251Y-90298001D01*
X105560001Y-90139251D01*
X105563073Y-89625001D01*
X105550813Y-89500519D01*
X105514503Y-89380821D01*
X105455538Y-89270507D01*
X105376186Y-89173816D01*
X105279495Y-89094464D01*
X105169181Y-89035499D01*
X105049483Y-88999189D01*
X104925001Y-88986929D01*
X104410751Y-88990001D01*
X104252001Y-89148751D01*
X103998001Y-89148751D01*
X103839251Y-88990001D01*
X103325001Y-88986929D01*
X103200519Y-88999189D01*
X103080821Y-89035499D01*
X102970507Y-89094464D01*
X102873816Y-89173816D01*
X102794464Y-89270507D01*
X102735499Y-89380821D01*
X102699189Y-89500519D01*
X102686929Y-89625001D01*
X101359990Y-89625001D01*
X101359990Y-83755001D01*
X102633058Y-83755001D01*
X102660765Y-84036310D01*
X102742819Y-84306809D01*
X102876069Y-84556102D01*
X103055393Y-84774609D01*
X103273900Y-84953933D01*
X103406859Y-85025001D01*
X103273900Y-85096069D01*
X103055393Y-85275393D01*
X102876069Y-85493900D01*
X102742819Y-85743193D01*
X102660765Y-86013692D01*
X102633058Y-86295001D01*
X102660765Y-86576310D01*
X102742819Y-86846809D01*
X102876069Y-87096102D01*
X103055393Y-87314609D01*
X103273900Y-87493933D01*
X103523193Y-87627183D01*
X103793692Y-87709237D01*
X104004509Y-87730001D01*
X104945493Y-87730001D01*
X105156310Y-87709237D01*
X105426809Y-87627183D01*
X105676102Y-87493933D01*
X105894609Y-87314609D01*
X106073933Y-87096102D01*
X106207183Y-86846809D01*
X106289237Y-86576310D01*
X106316944Y-86295001D01*
X106289237Y-86013692D01*
X106207183Y-85743193D01*
X106073933Y-85493900D01*
X105894609Y-85275393D01*
X105676102Y-85096069D01*
X105543143Y-85025001D01*
X105676102Y-84953933D01*
X105894609Y-84774609D01*
X106073933Y-84556102D01*
X106207183Y-84306809D01*
X106289237Y-84036310D01*
X106316944Y-83755001D01*
X106289237Y-83473692D01*
X106207183Y-83203193D01*
X106073933Y-82953900D01*
X105894609Y-82735393D01*
X105676102Y-82556069D01*
X105548260Y-82487736D01*
X105777840Y-82337602D01*
X105979501Y-82139896D01*
X106138716Y-81906647D01*
X106249368Y-81646819D01*
X106266905Y-81564040D01*
X106144916Y-81342001D01*
X104602001Y-81342001D01*
X104602001Y-81362001D01*
X104348001Y-81362001D01*
X104348001Y-81342001D01*
X102805086Y-81342001D01*
X102683097Y-81564040D01*
X102700634Y-81646819D01*
X102811286Y-81906647D01*
X102970501Y-82139896D01*
X103172162Y-82337602D01*
X103401742Y-82487736D01*
X103273900Y-82556069D01*
X103055393Y-82735393D01*
X102876069Y-82953900D01*
X102742819Y-83203193D01*
X102660765Y-83473692D01*
X102633058Y-83755001D01*
X101359990Y-83755001D01*
X101359990Y-77875001D01*
X102636929Y-77875001D01*
X102636929Y-79475001D01*
X102649189Y-79599483D01*
X102685499Y-79719181D01*
X102744464Y-79829495D01*
X102823816Y-79926186D01*
X102920507Y-80005538D01*
X103030821Y-80064503D01*
X103150519Y-80100813D01*
X103162388Y-80101982D01*
X102970501Y-80290106D01*
X102811286Y-80523355D01*
X102700634Y-80783183D01*
X102683097Y-80865962D01*
X102805086Y-81088001D01*
X104348001Y-81088001D01*
X104348001Y-81068001D01*
X104602001Y-81068001D01*
X104602001Y-81088001D01*
X106144916Y-81088001D01*
X106266905Y-80865962D01*
X106249368Y-80783183D01*
X106138716Y-80523355D01*
X105979501Y-80290106D01*
X105787614Y-80101982D01*
X105799483Y-80100813D01*
X105919181Y-80064503D01*
X106029495Y-80005538D01*
X106126186Y-79926186D01*
X106205538Y-79829495D01*
X106264503Y-79719181D01*
X106300813Y-79599483D01*
X106313073Y-79475001D01*
X106313073Y-77875001D01*
X106300813Y-77750519D01*
X106264503Y-77630821D01*
X106205538Y-77520507D01*
X106126186Y-77423816D01*
X106029495Y-77344464D01*
X105919181Y-77285499D01*
X105799483Y-77249189D01*
X105675001Y-77236929D01*
X103275001Y-77236929D01*
X103150519Y-77249189D01*
X103030821Y-77285499D01*
X102920507Y-77344464D01*
X102823816Y-77423816D01*
X102744464Y-77520507D01*
X102685499Y-77630821D01*
X102649189Y-77750519D01*
X102636929Y-77875001D01*
X101359990Y-77875001D01*
X101359990Y-75774811D01*
X102114803Y-75020000D01*
X114945199Y-75020000D01*
X115740002Y-75814804D01*
X115740002Y-76739012D01*
X115626519Y-76750189D01*
X115506821Y-76786499D01*
X115396507Y-76845464D01*
X115299816Y-76924816D01*
X115220464Y-77021507D01*
X115161499Y-77131821D01*
X115125189Y-77251519D01*
X115112929Y-77376001D01*
X115112929Y-78788127D01*
X114488805Y-78164003D01*
X114465002Y-78135000D01*
X114349277Y-78040027D01*
X114217248Y-77969455D01*
X114073987Y-77925998D01*
X113962334Y-77915001D01*
X113962323Y-77915001D01*
X113925001Y-77911325D01*
X113887679Y-77915001D01*
X113715902Y-77915001D01*
X113693933Y-77873900D01*
X113514609Y-77655393D01*
X113296102Y-77476069D01*
X113046809Y-77342819D01*
X112776310Y-77260765D01*
X112565493Y-77240001D01*
X111624509Y-77240001D01*
X111413692Y-77260765D01*
X111143193Y-77342819D01*
X110893900Y-77476069D01*
X110675393Y-77655393D01*
X110496069Y-77873900D01*
X110362819Y-78123193D01*
X110280765Y-78393692D01*
X110253058Y-78675001D01*
X110280765Y-78956310D01*
X110362819Y-79226809D01*
X110496069Y-79476102D01*
X110675393Y-79694609D01*
X110893900Y-79873933D01*
X111026859Y-79945001D01*
X110893900Y-80016069D01*
X110675393Y-80195393D01*
X110496069Y-80413900D01*
X110362819Y-80663193D01*
X110280765Y-80933692D01*
X110253058Y-81215001D01*
X110280765Y-81496310D01*
X110362819Y-81766809D01*
X110496069Y-82016102D01*
X110675393Y-82234609D01*
X110893900Y-82413933D01*
X111026859Y-82485001D01*
X110893900Y-82556069D01*
X110675393Y-82735393D01*
X110496069Y-82953900D01*
X110362819Y-83203193D01*
X110280765Y-83473692D01*
X110253058Y-83755001D01*
X110280765Y-84036310D01*
X110362819Y-84306809D01*
X110496069Y-84556102D01*
X110675393Y-84774609D01*
X110893900Y-84953933D01*
X111026859Y-85025001D01*
X110893900Y-85096069D01*
X110675393Y-85275393D01*
X110496069Y-85493900D01*
X110362819Y-85743193D01*
X110280765Y-86013692D01*
X110253058Y-86295001D01*
X110280765Y-86576310D01*
X110362819Y-86846809D01*
X110496069Y-87096102D01*
X110675393Y-87314609D01*
X110893900Y-87493933D01*
X111143193Y-87627183D01*
X111413692Y-87709237D01*
X111624509Y-87730001D01*
X112565493Y-87730001D01*
X112776310Y-87709237D01*
X113046809Y-87627183D01*
X113296102Y-87493933D01*
X113514609Y-87314609D01*
X113693933Y-87096102D01*
X113719990Y-87047352D01*
X113719991Y-92505830D01*
X113641940Y-92622642D01*
X113541305Y-92865596D01*
X113490001Y-93123515D01*
X113490001Y-93386487D01*
X113541305Y-93644406D01*
X113630607Y-93860000D01*
X113187322Y-93860000D01*
X113149999Y-93856324D01*
X113112676Y-93860000D01*
X113112667Y-93860000D01*
X113001014Y-93870997D01*
X112857753Y-93914454D01*
X112787269Y-93952129D01*
X112859638Y-93879760D01*
X113016681Y-93644728D01*
X113124854Y-93383575D01*
X113180001Y-93106336D01*
X113180001Y-92823666D01*
X113124854Y-92546427D01*
X113016681Y-92285274D01*
X112859638Y-92050242D01*
X112659760Y-91850364D01*
X112427242Y-91695001D01*
X112659760Y-91539638D01*
X112859638Y-91339760D01*
X113016681Y-91104728D01*
X113124854Y-90843575D01*
X113180001Y-90566336D01*
X113180001Y-90283666D01*
X113124854Y-90006427D01*
X113016681Y-89745274D01*
X112859638Y-89510242D01*
X112659760Y-89310364D01*
X112424728Y-89153321D01*
X112163575Y-89045148D01*
X111886336Y-88990001D01*
X111603666Y-88990001D01*
X111326427Y-89045148D01*
X111065274Y-89153321D01*
X110830242Y-89310364D01*
X110630364Y-89510242D01*
X110473321Y-89745274D01*
X110365148Y-90006427D01*
X110310001Y-90283666D01*
X110310001Y-90566336D01*
X110365148Y-90843575D01*
X110473321Y-91104728D01*
X110630364Y-91339760D01*
X110830242Y-91539638D01*
X111062760Y-91695001D01*
X110830242Y-91850364D01*
X110630364Y-92050242D01*
X110473321Y-92285274D01*
X110365148Y-92546427D01*
X110310001Y-92823666D01*
X110310001Y-93106336D01*
X110365148Y-93383575D01*
X110473321Y-93644728D01*
X110630364Y-93879760D01*
X110830242Y-94079638D01*
X111062760Y-94235001D01*
X110830242Y-94390364D01*
X110630364Y-94590242D01*
X110473321Y-94825274D01*
X110365148Y-95086427D01*
X110310001Y-95363666D01*
X110310001Y-95646336D01*
X110365148Y-95923575D01*
X110473321Y-96184728D01*
X110630364Y-96419760D01*
X110830242Y-96619638D01*
X111062760Y-96775001D01*
X110830242Y-96930364D01*
X110630364Y-97130242D01*
X110473321Y-97365274D01*
X110365148Y-97626427D01*
X110310001Y-97903666D01*
X110310001Y-98186336D01*
X110365148Y-98463575D01*
X110473321Y-98724728D01*
X110630364Y-98959760D01*
X110830242Y-99159638D01*
X111065274Y-99316681D01*
X111326427Y-99424854D01*
X111603666Y-99480001D01*
X111886336Y-99480001D01*
X112163575Y-99424854D01*
X112424728Y-99316681D01*
X112659760Y-99159638D01*
X112859638Y-98959760D01*
X112963044Y-98805001D01*
X117760001Y-98805001D01*
X117760001Y-100520431D01*
X117717360Y-100491940D01*
X117474406Y-100391305D01*
X117216487Y-100340001D01*
X116953515Y-100340001D01*
X116695596Y-100391305D01*
X116452642Y-100491940D01*
X116233988Y-100638039D01*
X116048039Y-100823988D01*
X115901940Y-101042642D01*
X115801305Y-101285596D01*
X115750001Y-101543515D01*
X115750001Y-101806487D01*
X115801305Y-102064406D01*
X115901940Y-102307360D01*
X116048039Y-102526014D01*
X116233988Y-102711963D01*
X116325002Y-102772776D01*
X116325001Y-104537678D01*
X116321325Y-104575001D01*
X116325001Y-104612323D01*
X116325001Y-104612333D01*
X116335998Y-104723986D01*
X116372699Y-104844974D01*
X116379455Y-104867247D01*
X116450027Y-104999277D01*
X116481604Y-105037753D01*
X116545000Y-105115002D01*
X116574003Y-105138804D01*
X117195198Y-105760000D01*
X105524802Y-105760000D01*
X104735001Y-104970200D01*
X104735001Y-102772776D01*
X104826014Y-102711963D01*
X105011963Y-102526014D01*
X105158062Y-102307360D01*
X105258697Y-102064406D01*
X105310001Y-101806487D01*
X105310001Y-101543515D01*
X107720001Y-101543515D01*
X107720001Y-101806487D01*
X107771305Y-102064406D01*
X107871940Y-102307360D01*
X108018039Y-102526014D01*
X108203988Y-102711963D01*
X108422642Y-102858062D01*
X108665596Y-102958697D01*
X108923515Y-103010001D01*
X109186487Y-103010001D01*
X109444406Y-102958697D01*
X109687360Y-102858062D01*
X109906014Y-102711963D01*
X110091963Y-102526014D01*
X110238062Y-102307360D01*
X110338697Y-102064406D01*
X110390001Y-101806487D01*
X110390001Y-101543515D01*
X110670001Y-101543515D01*
X110670001Y-101806487D01*
X110721305Y-102064406D01*
X110821940Y-102307360D01*
X110968039Y-102526014D01*
X111153988Y-102711963D01*
X111372642Y-102858062D01*
X111615596Y-102958697D01*
X111873515Y-103010001D01*
X112136487Y-103010001D01*
X112394406Y-102958697D01*
X112637360Y-102858062D01*
X112856014Y-102711963D01*
X113041963Y-102526014D01*
X113188062Y-102307360D01*
X113288697Y-102064406D01*
X113340001Y-101806487D01*
X113340001Y-101543515D01*
X113288697Y-101285596D01*
X113188062Y-101042642D01*
X113041963Y-100823988D01*
X112856014Y-100638039D01*
X112637360Y-100491940D01*
X112394406Y-100391305D01*
X112136487Y-100340001D01*
X111873515Y-100340001D01*
X111615596Y-100391305D01*
X111372642Y-100491940D01*
X111153988Y-100638039D01*
X110968039Y-100823988D01*
X110821940Y-101042642D01*
X110721305Y-101285596D01*
X110670001Y-101543515D01*
X110390001Y-101543515D01*
X110338697Y-101285596D01*
X110238062Y-101042642D01*
X110091963Y-100823988D01*
X109906014Y-100638039D01*
X109687360Y-100491940D01*
X109444406Y-100391305D01*
X109186487Y-100340001D01*
X108923515Y-100340001D01*
X108665596Y-100391305D01*
X108422642Y-100491940D01*
X108203988Y-100638039D01*
X108018039Y-100823988D01*
X107871940Y-101042642D01*
X107771305Y-101285596D01*
X107720001Y-101543515D01*
X105310001Y-101543515D01*
X105258697Y-101285596D01*
X105158062Y-101042642D01*
X105011963Y-100823988D01*
X104826014Y-100638039D01*
X104607360Y-100491940D01*
X104364406Y-100391305D01*
X104106487Y-100340001D01*
X103843515Y-100340001D01*
X103585596Y-100391305D01*
X103342642Y-100491940D01*
X103123988Y-100638039D01*
X102938039Y-100823988D01*
X102791940Y-101042642D01*
X102691305Y-101285596D01*
X102640001Y-101543515D01*
X102640001Y-101806487D01*
X102691305Y-102064406D01*
X102791940Y-102307360D01*
X102938039Y-102526014D01*
X103123988Y-102711963D01*
X103215002Y-102772776D01*
X103215001Y-105247678D01*
X103211325Y-105285001D01*
X103215001Y-105322323D01*
X103215001Y-105322333D01*
X103225998Y-105433986D01*
X103269455Y-105577247D01*
X103340027Y-105709277D01*
X103376957Y-105754276D01*
X103435000Y-105825002D01*
X103464004Y-105848805D01*
X104646201Y-107031003D01*
X104669999Y-107060001D01*
X104785724Y-107154974D01*
X104917753Y-107225546D01*
X105061014Y-107269003D01*
X105172667Y-107280000D01*
X105172676Y-107280000D01*
X105209999Y-107283676D01*
X105247322Y-107280000D01*
X154492678Y-107280000D01*
X154530000Y-107283676D01*
X154567322Y-107280000D01*
X154567333Y-107280000D01*
X154678986Y-107269003D01*
X154727361Y-107254329D01*
X154706654Y-107304321D01*
X154615000Y-107765098D01*
X154615000Y-108234902D01*
X154706654Y-108695679D01*
X154886440Y-109129721D01*
X155147450Y-109520349D01*
X155479651Y-109852550D01*
X155870279Y-110113560D01*
X156304321Y-110293346D01*
X156538867Y-110340000D01*
X101461133Y-110340000D01*
X101695679Y-110293346D01*
X102129721Y-110113560D01*
X102520349Y-109852550D01*
X102852550Y-109520349D01*
X103113560Y-109129721D01*
X103293346Y-108695679D01*
X103385000Y-108234902D01*
X103385000Y-107765098D01*
X103293346Y-107304321D01*
X103113560Y-106870279D01*
X102852550Y-106479651D01*
X102520349Y-106147450D01*
X102129721Y-105886440D01*
X101695679Y-105706654D01*
X101234902Y-105615000D01*
X100765098Y-105615000D01*
X100304321Y-105706654D01*
X99870279Y-105886440D01*
X99479651Y-106147450D01*
X99147450Y-106479651D01*
X98886440Y-106870279D01*
X98706654Y-107304321D01*
X98660000Y-107538867D01*
X98660000Y-72461133D01*
X98706654Y-72695679D01*
G37*
%TD.AperFunction*%
D30*
X156304321Y-69706654D02*
X155870279Y-69886440D01*
X155479651Y-70147450D01*
X155147450Y-70479651D01*
X154886440Y-70870279D01*
X154706654Y-71304321D01*
X154615000Y-71765098D01*
X154615000Y-72234902D01*
X154706654Y-72695679D01*
X154886440Y-73129721D01*
X155147450Y-73520349D01*
X155479651Y-73852550D01*
X155870279Y-74113560D01*
X156304321Y-74293346D01*
X156765098Y-74385000D01*
X157234902Y-74385000D01*
X157695679Y-74293346D01*
X158129721Y-74113560D01*
X158520349Y-73852550D01*
X158852550Y-73520349D01*
X159113560Y-73129721D01*
X159293346Y-72695679D01*
X159340000Y-72461133D01*
X159340001Y-107538872D01*
X159293346Y-107304321D01*
X159113560Y-106870279D01*
X158852550Y-106479651D01*
X158520349Y-106147450D01*
X158129721Y-105886440D01*
X157695679Y-105706654D01*
X157234902Y-105615000D01*
X156765098Y-105615000D01*
X156304321Y-105706654D01*
X156114284Y-105785370D01*
X156120000Y-105727333D01*
X156120000Y-105727324D01*
X156123676Y-105690001D01*
X156120000Y-105652678D01*
X156120000Y-82987323D01*
X156123676Y-82950000D01*
X156120000Y-82912677D01*
X156120000Y-82912667D01*
X156109003Y-82801014D01*
X156065546Y-82657753D01*
X156050304Y-82629237D01*
X155994974Y-82525723D01*
X155943226Y-82462669D01*
X155900001Y-82409999D01*
X155870998Y-82386197D01*
X155413804Y-81929003D01*
X155390001Y-81899999D01*
X155274276Y-81805026D01*
X155142247Y-81734454D01*
X154998986Y-81690997D01*
X154887333Y-81680000D01*
X154887322Y-81680000D01*
X154850000Y-81676324D01*
X154812678Y-81680000D01*
X146947323Y-81680000D01*
X146910000Y-81676324D01*
X146872677Y-81680000D01*
X146872667Y-81680000D01*
X146761014Y-81690997D01*
X146617753Y-81734454D01*
X146485724Y-81805026D01*
X146369999Y-81899999D01*
X146346196Y-81929003D01*
X146038998Y-82236201D01*
X146010000Y-82259999D01*
X145986202Y-82288997D01*
X145986201Y-82288998D01*
X145915026Y-82375724D01*
X145844454Y-82507754D01*
X145819814Y-82588985D01*
X145803754Y-82641928D01*
X144755000Y-82641928D01*
X144630518Y-82654188D01*
X144510820Y-82690498D01*
X144400506Y-82749463D01*
X144303815Y-82828815D01*
X144224463Y-82925506D01*
X144165498Y-83035820D01*
X144129188Y-83155518D01*
X144116928Y-83280000D01*
X144116928Y-84780000D01*
X144129188Y-84904482D01*
X144165498Y-85024180D01*
X144224463Y-85134494D01*
X144303815Y-85231185D01*
X144400506Y-85310537D01*
X144510820Y-85369502D01*
X144630518Y-85405812D01*
X144755000Y-85418072D01*
X145805000Y-85418072D01*
X145929482Y-85405812D01*
X146049180Y-85369502D01*
X146113902Y-85334907D01*
X146322601Y-85398215D01*
X146550000Y-85420612D01*
X146777400Y-85398215D01*
X146996060Y-85331885D01*
X147185001Y-85230894D01*
X147373941Y-85331885D01*
X147592601Y-85398215D01*
X147820000Y-85420612D01*
X148047400Y-85398215D01*
X148266060Y-85331885D01*
X148467579Y-85224171D01*
X148644212Y-85079212D01*
X148789171Y-84902579D01*
X148896885Y-84701059D01*
X148963215Y-84482399D01*
X148980000Y-84311978D01*
X148980000Y-83748021D01*
X148963215Y-83577600D01*
X148896885Y-83358940D01*
X148811930Y-83200000D01*
X154535199Y-83200000D01*
X154600000Y-83264801D01*
X154600000Y-92895128D01*
X154594974Y-92885724D01*
X154500001Y-92769999D01*
X154471004Y-92746202D01*
X153723803Y-91999002D01*
X153700001Y-91969999D01*
X153584276Y-91875026D01*
X153452247Y-91804454D01*
X153308986Y-91760997D01*
X153197333Y-91750000D01*
X153197322Y-91750000D01*
X153160000Y-91746324D01*
X153122678Y-91750000D01*
X148847333Y-91750000D01*
X148810000Y-91746323D01*
X148772667Y-91750000D01*
X148661014Y-91760997D01*
X148517753Y-91804454D01*
X148385724Y-91875026D01*
X148269999Y-91969999D01*
X148246200Y-91998998D01*
X147738998Y-92506201D01*
X147710000Y-92529999D01*
X147686202Y-92558997D01*
X147686201Y-92558998D01*
X147615026Y-92645724D01*
X147544454Y-92777754D01*
X147500998Y-92921015D01*
X147486324Y-93070000D01*
X147490001Y-93107332D01*
X147490001Y-93864962D01*
X147405820Y-93890498D01*
X147295506Y-93949463D01*
X147198815Y-94028815D01*
X147119463Y-94125506D01*
X147060498Y-94235820D01*
X147024188Y-94355518D01*
X147011928Y-94480000D01*
X147011928Y-95680000D01*
X147024188Y-95804482D01*
X147060498Y-95924180D01*
X147119463Y-96034494D01*
X147198815Y-96131185D01*
X147295506Y-96210537D01*
X147405820Y-96269502D01*
X147525518Y-96305812D01*
X147650000Y-96318072D01*
X148850000Y-96318072D01*
X148974482Y-96305812D01*
X149094180Y-96269502D01*
X149204494Y-96210537D01*
X149301185Y-96131185D01*
X149380537Y-96034494D01*
X149404858Y-95988994D01*
X149462736Y-96046872D01*
X149579842Y-95929766D01*
X149627148Y-96153348D01*
X149848516Y-96254237D01*
X150085313Y-96310000D01*
X150328438Y-96318495D01*
X150568549Y-96279395D01*
X150796418Y-96194202D01*
X150872852Y-96153348D01*
X150920159Y-95929764D01*
X150250000Y-95259605D01*
X150235858Y-95273748D01*
X150056253Y-95094143D01*
X150070395Y-95080000D01*
X150429605Y-95080000D01*
X151099764Y-95750159D01*
X151323348Y-95702852D01*
X151424237Y-95481484D01*
X151480000Y-95244687D01*
X151488495Y-95001562D01*
X151449395Y-94761451D01*
X151364202Y-94533582D01*
X151323348Y-94457148D01*
X151099764Y-94409841D01*
X150429605Y-95080000D01*
X150070395Y-95080000D01*
X150056253Y-95065858D01*
X150235858Y-94886253D01*
X150250000Y-94900395D01*
X150920159Y-94230236D01*
X150872852Y-94006652D01*
X150651484Y-93905763D01*
X150414687Y-93850000D01*
X150171562Y-93841505D01*
X149931451Y-93880605D01*
X149703582Y-93965798D01*
X149627148Y-94006652D01*
X149579842Y-94230234D01*
X149462736Y-94113128D01*
X149404858Y-94171006D01*
X149380537Y-94125506D01*
X149301185Y-94028815D01*
X149204494Y-93949463D01*
X149094180Y-93890498D01*
X149010000Y-93864962D01*
X149010000Y-93384801D01*
X149124802Y-93270000D01*
X152845199Y-93270000D01*
X153200000Y-93624802D01*
X153200001Y-103405197D01*
X152035199Y-104570000D01*
X144440002Y-104570000D01*
X144534974Y-104454276D01*
X144605546Y-104322247D01*
X144649003Y-104178986D01*
X144660000Y-104067333D01*
X144660000Y-104067325D01*
X144663676Y-104030000D01*
X144660000Y-103992675D01*
X144660000Y-102894142D01*
X144828184Y-102936300D01*
X145110512Y-102950217D01*
X145390130Y-102908787D01*
X145656292Y-102813603D01*
X145781514Y-102746671D01*
X145853097Y-102502702D01*
X145040000Y-101689605D01*
X145025858Y-101703748D01*
X144846253Y-101524143D01*
X144860395Y-101510000D01*
X145219605Y-101510000D01*
X146032702Y-102323097D01*
X146276671Y-102251514D01*
X146397571Y-101996004D01*
X146466300Y-101721816D01*
X146480217Y-101439488D01*
X146438787Y-101159870D01*
X146343603Y-100893708D01*
X146276671Y-100768486D01*
X146032702Y-100696903D01*
X145219605Y-101510000D01*
X144860395Y-101510000D01*
X144846253Y-101495858D01*
X145025858Y-101316253D01*
X145040000Y-101330395D01*
X145820395Y-100550000D01*
X147051928Y-100550000D01*
X147051928Y-101750000D01*
X147064188Y-101874482D01*
X147100498Y-101994180D01*
X147159463Y-102104494D01*
X147238815Y-102201185D01*
X147335506Y-102280537D01*
X147445820Y-102339502D01*
X147565518Y-102375812D01*
X147690000Y-102388072D01*
X148890000Y-102388072D01*
X149014482Y-102375812D01*
X149134180Y-102339502D01*
X149244494Y-102280537D01*
X149341185Y-102201185D01*
X149420537Y-102104494D01*
X149444858Y-102058994D01*
X149502736Y-102116872D01*
X149619842Y-101999766D01*
X149667148Y-102223348D01*
X149888516Y-102324237D01*
X150125313Y-102380000D01*
X150368438Y-102388495D01*
X150608549Y-102349395D01*
X150836418Y-102264202D01*
X150912852Y-102223348D01*
X150960159Y-101999764D01*
X150290000Y-101329605D01*
X150275858Y-101343748D01*
X150096253Y-101164143D01*
X150110395Y-101150000D01*
X150469605Y-101150000D01*
X151139764Y-101820159D01*
X151363348Y-101772852D01*
X151464237Y-101551484D01*
X151520000Y-101314687D01*
X151528495Y-101071562D01*
X151489395Y-100831451D01*
X151404202Y-100603582D01*
X151363348Y-100527148D01*
X151139764Y-100479841D01*
X150469605Y-101150000D01*
X150110395Y-101150000D01*
X150096253Y-101135858D01*
X150275858Y-100956253D01*
X150290000Y-100970395D01*
X150960159Y-100300236D01*
X150912852Y-100076652D01*
X150691484Y-99975763D01*
X150454687Y-99920000D01*
X150211562Y-99911505D01*
X149971451Y-99950605D01*
X149743582Y-100035798D01*
X149667148Y-100076652D01*
X149619842Y-100300234D01*
X149502736Y-100183128D01*
X149444858Y-100241006D01*
X149420537Y-100195506D01*
X149341185Y-100098815D01*
X149244494Y-100019463D01*
X149134180Y-99960498D01*
X149014482Y-99924188D01*
X148890000Y-99911928D01*
X147690000Y-99911928D01*
X147565518Y-99924188D01*
X147445820Y-99960498D01*
X147335506Y-100019463D01*
X147238815Y-100098815D01*
X147159463Y-100195506D01*
X147100498Y-100305820D01*
X147064188Y-100425518D01*
X147051928Y-100550000D01*
X145820395Y-100550000D01*
X145853097Y-100517298D01*
X145781514Y-100273329D01*
X145674984Y-100222922D01*
X145761514Y-100176671D01*
X145833097Y-99932702D01*
X145020000Y-99119605D01*
X145005858Y-99133748D01*
X144826253Y-98954143D01*
X144840395Y-98940000D01*
X145199605Y-98940000D01*
X146012702Y-99753097D01*
X146256671Y-99681514D01*
X146377571Y-99426004D01*
X146446300Y-99151816D01*
X146460217Y-98869488D01*
X146418787Y-98589870D01*
X146323603Y-98323708D01*
X146256671Y-98198486D01*
X146012702Y-98126903D01*
X145199605Y-98940000D01*
X144840395Y-98940000D01*
X144027298Y-98126903D01*
X143811400Y-98190250D01*
X143740207Y-98183238D01*
X143634637Y-98025241D01*
X143556694Y-97947298D01*
X144206903Y-97947298D01*
X145020000Y-98760395D01*
X145833097Y-97947298D01*
X145761514Y-97703329D01*
X145506004Y-97582429D01*
X145231816Y-97513700D01*
X144949488Y-97499783D01*
X144669870Y-97541213D01*
X144403708Y-97636397D01*
X144278486Y-97703329D01*
X144206903Y-97947298D01*
X143556694Y-97947298D01*
X143434759Y-97825363D01*
X143199727Y-97668320D01*
X142938574Y-97560147D01*
X142661335Y-97505000D01*
X142378665Y-97505000D01*
X142101426Y-97560147D01*
X141840273Y-97668320D01*
X141740001Y-97735319D01*
X141740001Y-95989606D01*
X141765506Y-96010537D01*
X141875820Y-96069502D01*
X141995518Y-96105812D01*
X142120000Y-96118072D01*
X143320000Y-96118072D01*
X143444482Y-96105812D01*
X143564180Y-96069502D01*
X143674494Y-96010537D01*
X143771185Y-95931185D01*
X143850537Y-95834494D01*
X143874858Y-95788994D01*
X143932736Y-95846872D01*
X144049842Y-95729766D01*
X144097148Y-95953348D01*
X144318516Y-96054237D01*
X144555313Y-96110000D01*
X144798438Y-96118495D01*
X145038549Y-96079395D01*
X145266418Y-95994202D01*
X145342852Y-95953348D01*
X145390159Y-95729764D01*
X144720000Y-95059605D01*
X144705858Y-95073748D01*
X144526253Y-94894143D01*
X144540395Y-94880000D01*
X144899605Y-94880000D01*
X145569764Y-95550159D01*
X145793348Y-95502852D01*
X145894237Y-95281484D01*
X145950000Y-95044687D01*
X145958495Y-94801562D01*
X145919395Y-94561451D01*
X145834202Y-94333582D01*
X145793348Y-94257148D01*
X145569764Y-94209841D01*
X144899605Y-94880000D01*
X144540395Y-94880000D01*
X144526253Y-94865858D01*
X144705858Y-94686253D01*
X144720000Y-94700395D01*
X145390159Y-94030236D01*
X145342852Y-93806652D01*
X145121484Y-93705763D01*
X144884687Y-93650000D01*
X144641562Y-93641505D01*
X144401451Y-93680605D01*
X144173582Y-93765798D01*
X144097148Y-93806652D01*
X144049842Y-94030234D01*
X144010000Y-93990392D01*
X144010000Y-90460000D01*
X144141928Y-90460000D01*
X144154188Y-90584482D01*
X144190498Y-90704180D01*
X144249463Y-90814494D01*
X144328815Y-90911185D01*
X144425506Y-90990537D01*
X144535820Y-91049502D01*
X144655518Y-91085812D01*
X144780000Y-91098072D01*
X145394250Y-91095000D01*
X145553000Y-90936250D01*
X145553000Y-89687000D01*
X144303750Y-89687000D01*
X144145000Y-89845750D01*
X144141928Y-90460000D01*
X144010000Y-90460000D01*
X144010000Y-88660000D01*
X144141928Y-88660000D01*
X144145000Y-89274250D01*
X144303750Y-89433000D01*
X145553000Y-89433000D01*
X145553000Y-88183750D01*
X145807000Y-88183750D01*
X145807000Y-89433000D01*
X145827000Y-89433000D01*
X145827000Y-89687000D01*
X145807000Y-89687000D01*
X145807000Y-90936250D01*
X145965750Y-91095000D01*
X146580000Y-91098072D01*
X146704482Y-91085812D01*
X146824180Y-91049502D01*
X146934494Y-90990537D01*
X147031185Y-90911185D01*
X147110537Y-90814494D01*
X147169502Y-90704180D01*
X147175056Y-90685873D01*
X147241495Y-90752312D01*
X147492905Y-90920299D01*
X147772257Y-91036011D01*
X148068816Y-91095000D01*
X148371184Y-91095000D01*
X148667743Y-91036011D01*
X148947095Y-90920299D01*
X149198505Y-90752312D01*
X149412312Y-90538505D01*
X149580299Y-90287095D01*
X149696011Y-90007743D01*
X149755000Y-89711184D01*
X149755000Y-89408816D01*
X149696011Y-89112257D01*
X149580299Y-88832905D01*
X149412312Y-88581495D01*
X149198505Y-88367688D01*
X148947095Y-88199701D01*
X148827107Y-88150000D01*
X150321928Y-88150000D01*
X150321928Y-89850000D01*
X150334188Y-89974482D01*
X150370498Y-90094180D01*
X150429463Y-90204494D01*
X150508815Y-90301185D01*
X150605506Y-90380537D01*
X150715820Y-90439502D01*
X150835518Y-90475812D01*
X150960000Y-90488072D01*
X152660000Y-90488072D01*
X152784482Y-90475812D01*
X152904180Y-90439502D01*
X153014494Y-90380537D01*
X153111185Y-90301185D01*
X153190537Y-90204494D01*
X153249502Y-90094180D01*
X153285812Y-89974482D01*
X153298072Y-89850000D01*
X153298072Y-88150000D01*
X153285812Y-88025518D01*
X153249502Y-87905820D01*
X153190537Y-87795506D01*
X153111185Y-87698815D01*
X153014494Y-87619463D01*
X152904180Y-87560498D01*
X152831620Y-87538487D01*
X152963475Y-87406632D01*
X153125990Y-87163411D01*
X153237932Y-86893158D01*
X153295000Y-86606260D01*
X153295000Y-86313740D01*
X153237932Y-86026842D01*
X153125990Y-85756589D01*
X152963475Y-85513368D01*
X152756632Y-85306525D01*
X152513411Y-85144010D01*
X152243158Y-85032068D01*
X151956260Y-84975000D01*
X151663740Y-84975000D01*
X151376842Y-85032068D01*
X151106589Y-85144010D01*
X150863368Y-85306525D01*
X150656525Y-85513368D01*
X150494010Y-85756589D01*
X150382068Y-86026842D01*
X150325000Y-86313740D01*
X150325000Y-86606260D01*
X150382068Y-86893158D01*
X150494010Y-87163411D01*
X150656525Y-87406632D01*
X150788380Y-87538487D01*
X150715820Y-87560498D01*
X150605506Y-87619463D01*
X150508815Y-87698815D01*
X150429463Y-87795506D01*
X150370498Y-87905820D01*
X150334188Y-88025518D01*
X150321928Y-88150000D01*
X148827107Y-88150000D01*
X148667743Y-88083989D01*
X148371184Y-88025000D01*
X148068816Y-88025000D01*
X147772257Y-88083989D01*
X147492905Y-88199701D01*
X147241495Y-88367688D01*
X147175056Y-88434127D01*
X147169502Y-88415820D01*
X147110537Y-88305506D01*
X147031185Y-88208815D01*
X146934494Y-88129463D01*
X146824180Y-88070498D01*
X146704482Y-88034188D01*
X146580000Y-88021928D01*
X145965750Y-88025000D01*
X145807000Y-88183750D01*
X145553000Y-88183750D01*
X145394250Y-88025000D01*
X144780000Y-88021928D01*
X144655518Y-88034188D01*
X144535820Y-88070498D01*
X144425506Y-88129463D01*
X144328815Y-88208815D01*
X144249463Y-88305506D01*
X144190498Y-88415820D01*
X144154188Y-88535518D01*
X144141928Y-88660000D01*
X144010000Y-88660000D01*
X144010000Y-82537335D01*
X144013677Y-82500002D01*
X143999003Y-82351016D01*
X143955546Y-82207755D01*
X143884974Y-82075726D01*
X143822826Y-81999999D01*
X143790001Y-81960001D01*
X143761004Y-81936204D01*
X143208802Y-81384003D01*
X143185000Y-81355000D01*
X143069275Y-81260027D01*
X142937246Y-81189455D01*
X142848292Y-81162471D01*
X142749374Y-80997000D01*
X141707000Y-80997000D01*
X141707000Y-81017000D01*
X141453000Y-81017000D01*
X141453000Y-80997000D01*
X140410626Y-80997000D01*
X140328130Y-81135001D01*
X137808442Y-81135001D01*
X137835000Y-81001486D01*
X137835000Y-80738514D01*
X137794851Y-80536671D01*
X140287284Y-80536671D01*
X140410626Y-80743000D01*
X141453000Y-80743000D01*
X141453000Y-79699799D01*
X141707000Y-79699799D01*
X141707000Y-80743000D01*
X142749374Y-80743000D01*
X142872716Y-80536671D01*
X142840047Y-80428956D01*
X142729792Y-80191608D01*
X142575351Y-79980330D01*
X142382660Y-79803241D01*
X142159123Y-79667147D01*
X141913330Y-79577278D01*
X141707000Y-79699799D01*
X141453000Y-79699799D01*
X141246670Y-79577278D01*
X141000877Y-79667147D01*
X140777340Y-79803241D01*
X140584649Y-79980330D01*
X140430208Y-80191608D01*
X140319953Y-80428956D01*
X140287284Y-80536671D01*
X137794851Y-80536671D01*
X137783696Y-80480595D01*
X137683061Y-80237641D01*
X137536962Y-80018987D01*
X137351013Y-79833038D01*
X137132359Y-79686939D01*
X136889405Y-79586304D01*
X136631486Y-79535000D01*
X136368514Y-79535000D01*
X136110595Y-79586304D01*
X135867641Y-79686939D01*
X135648987Y-79833038D01*
X135630000Y-79852025D01*
X135630000Y-79007975D01*
X135678987Y-79056962D01*
X135897641Y-79203061D01*
X136140595Y-79303696D01*
X136398514Y-79355000D01*
X136661486Y-79355000D01*
X136919405Y-79303696D01*
X137162359Y-79203061D01*
X137381013Y-79056962D01*
X137566962Y-78871013D01*
X137713061Y-78652359D01*
X137813696Y-78409405D01*
X137865000Y-78151486D01*
X137865000Y-77888514D01*
X137813696Y-77630595D01*
X137713061Y-77387641D01*
X137566962Y-77168987D01*
X137381013Y-76983038D01*
X137162359Y-76836939D01*
X136919405Y-76736304D01*
X136787168Y-76710000D01*
X140845199Y-76710000D01*
X140850001Y-76714802D01*
X140850001Y-76922225D01*
X140758987Y-76983038D01*
X140573038Y-77168987D01*
X140426939Y-77387641D01*
X140326304Y-77630595D01*
X140275000Y-77888514D01*
X140275000Y-78151486D01*
X140326304Y-78409405D01*
X140426939Y-78652359D01*
X140573038Y-78871013D01*
X140758987Y-79056962D01*
X140977641Y-79203061D01*
X141220595Y-79303696D01*
X141478514Y-79355000D01*
X141741486Y-79355000D01*
X141999405Y-79303696D01*
X142242359Y-79203061D01*
X142461013Y-79056962D01*
X142646962Y-78871013D01*
X142793061Y-78652359D01*
X142893696Y-78409405D01*
X142945000Y-78151486D01*
X142945000Y-77888514D01*
X142893696Y-77630595D01*
X142802323Y-77410000D01*
X143351928Y-77410000D01*
X143351928Y-79110000D01*
X143364188Y-79234482D01*
X143400498Y-79354180D01*
X143459463Y-79464494D01*
X143538815Y-79561185D01*
X143635506Y-79640537D01*
X143745820Y-79699502D01*
X143865518Y-79735812D01*
X143990000Y-79748072D01*
X145690000Y-79748072D01*
X145814482Y-79735812D01*
X145934180Y-79699502D01*
X146044494Y-79640537D01*
X146141185Y-79561185D01*
X146220537Y-79464494D01*
X146279502Y-79354180D01*
X146303966Y-79273534D01*
X146379731Y-79357588D01*
X146613080Y-79531641D01*
X146875901Y-79656825D01*
X147023110Y-79701476D01*
X147253000Y-79580155D01*
X147253000Y-78387000D01*
X147507000Y-78387000D01*
X147507000Y-79580155D01*
X147736890Y-79701476D01*
X147884099Y-79656825D01*
X148146920Y-79531641D01*
X148380269Y-79357588D01*
X148575178Y-79141355D01*
X148724157Y-78891252D01*
X148821481Y-78616891D01*
X148700814Y-78387000D01*
X147507000Y-78387000D01*
X147253000Y-78387000D01*
X147233000Y-78387000D01*
X147233000Y-78150000D01*
X149806928Y-78150000D01*
X149806928Y-79650000D01*
X149819188Y-79774482D01*
X149855498Y-79894180D01*
X149914463Y-80004494D01*
X149993815Y-80101185D01*
X150090506Y-80180537D01*
X150200820Y-80239502D01*
X150320518Y-80275812D01*
X150445000Y-80288072D01*
X151495000Y-80288072D01*
X151619482Y-80275812D01*
X151739180Y-80239502D01*
X151803902Y-80204907D01*
X152012601Y-80268215D01*
X152240000Y-80290612D01*
X152467400Y-80268215D01*
X152686060Y-80201885D01*
X152874669Y-80101071D01*
X152933118Y-80142275D01*
X153142663Y-80235272D01*
X153204190Y-80243964D01*
X153383000Y-80118163D01*
X153383000Y-79353108D01*
X153383215Y-79352399D01*
X153400000Y-79181978D01*
X153400000Y-79027000D01*
X153637000Y-79027000D01*
X153637000Y-80118163D01*
X153815810Y-80243964D01*
X153877337Y-80235272D01*
X154086882Y-80142275D01*
X154274258Y-80010184D01*
X154432264Y-79844076D01*
X154554828Y-79650334D01*
X154637239Y-79436404D01*
X154676331Y-79210507D01*
X154516598Y-79027000D01*
X153637000Y-79027000D01*
X153400000Y-79027000D01*
X153400000Y-78618021D01*
X153383215Y-78447600D01*
X153383000Y-78446891D01*
X153383000Y-77681837D01*
X153637000Y-77681837D01*
X153637000Y-78773000D01*
X154516598Y-78773000D01*
X154676331Y-78589493D01*
X154637239Y-78363596D01*
X154554828Y-78149666D01*
X154432264Y-77955924D01*
X154274258Y-77789816D01*
X154086882Y-77657725D01*
X153877337Y-77564728D01*
X153815810Y-77556036D01*
X153637000Y-77681837D01*
X153383000Y-77681837D01*
X153204190Y-77556036D01*
X153142663Y-77564728D01*
X152933118Y-77657725D01*
X152874669Y-77698929D01*
X152686059Y-77598115D01*
X152467399Y-77531785D01*
X152240000Y-77509388D01*
X152012600Y-77531785D01*
X151803902Y-77595093D01*
X151739180Y-77560498D01*
X151619482Y-77524188D01*
X151495000Y-77511928D01*
X150445000Y-77511928D01*
X150320518Y-77524188D01*
X150200820Y-77560498D01*
X150090506Y-77619463D01*
X149993815Y-77698815D01*
X149914463Y-77795506D01*
X149855498Y-77905820D01*
X149819188Y-78025518D01*
X149806928Y-78150000D01*
X147233000Y-78150000D01*
X147233000Y-78133000D01*
X147253000Y-78133000D01*
X147253000Y-76939845D01*
X147507000Y-76939845D01*
X147507000Y-78133000D01*
X148700814Y-78133000D01*
X148821481Y-77903109D01*
X148724157Y-77628748D01*
X148575178Y-77378645D01*
X148380269Y-77162412D01*
X148146920Y-76988359D01*
X147884099Y-76863175D01*
X147736890Y-76818524D01*
X147507000Y-76939845D01*
X147253000Y-76939845D01*
X147023110Y-76818524D01*
X146875901Y-76863175D01*
X146613080Y-76988359D01*
X146379731Y-77162412D01*
X146303966Y-77246466D01*
X146279502Y-77165820D01*
X146220537Y-77055506D01*
X146141185Y-76958815D01*
X146044494Y-76879463D01*
X145934180Y-76820498D01*
X145814482Y-76784188D01*
X145690000Y-76771928D01*
X143990000Y-76771928D01*
X143865518Y-76784188D01*
X143745820Y-76820498D01*
X143635506Y-76879463D01*
X143538815Y-76958815D01*
X143459463Y-77055506D01*
X143400498Y-77165820D01*
X143364188Y-77285518D01*
X143351928Y-77410000D01*
X142802323Y-77410000D01*
X142793061Y-77387641D01*
X142646962Y-77168987D01*
X142461013Y-76983038D01*
X142370000Y-76922225D01*
X142370000Y-76437322D01*
X142373676Y-76399999D01*
X142370000Y-76362676D01*
X142370000Y-76362667D01*
X142359003Y-76251014D01*
X142315546Y-76107753D01*
X142279332Y-76040002D01*
X142244974Y-75975723D01*
X142202752Y-75924276D01*
X142150001Y-75859999D01*
X142120997Y-75836196D01*
X141723804Y-75439003D01*
X141700001Y-75409999D01*
X141584276Y-75315026D01*
X141452247Y-75244454D01*
X141308986Y-75200997D01*
X141197333Y-75190000D01*
X141197322Y-75190000D01*
X141160000Y-75186324D01*
X141122678Y-75190000D01*
X127697333Y-75190000D01*
X127660000Y-75186323D01*
X127622667Y-75190000D01*
X127511014Y-75200997D01*
X127367753Y-75244454D01*
X127235724Y-75315026D01*
X127119999Y-75409999D01*
X127096201Y-75438998D01*
X126409003Y-76126196D01*
X126380000Y-76149998D01*
X126334413Y-76205547D01*
X126285027Y-76265723D01*
X126233209Y-76362667D01*
X126214455Y-76397753D01*
X126170998Y-76541014D01*
X126160001Y-76652667D01*
X126160001Y-76652677D01*
X126156325Y-76689999D01*
X126160001Y-76727322D01*
X126160001Y-76739012D01*
X126046519Y-76750189D01*
X125926821Y-76786499D01*
X125816507Y-76845464D01*
X125719816Y-76924816D01*
X125640464Y-77021507D01*
X125581499Y-77131821D01*
X125545189Y-77251519D01*
X125532929Y-77376001D01*
X125532929Y-78874001D01*
X125545189Y-78998483D01*
X125581499Y-79118181D01*
X125640464Y-79228495D01*
X125719816Y-79325186D01*
X125816507Y-79404538D01*
X125926821Y-79463503D01*
X126046519Y-79499813D01*
X126171001Y-79512073D01*
X127669001Y-79512073D01*
X127793483Y-79499813D01*
X127913181Y-79463503D01*
X128023495Y-79404538D01*
X128120186Y-79325186D01*
X128199538Y-79228495D01*
X128258503Y-79118181D01*
X128294813Y-78998483D01*
X128307073Y-78874001D01*
X128307073Y-78197532D01*
X132031196Y-78197532D01*
X132072031Y-78467082D01*
X132164669Y-78723485D01*
X132224956Y-78836272D01*
X132463722Y-78901675D01*
X133240396Y-78125001D01*
X132463722Y-77348327D01*
X132224956Y-77413730D01*
X132109156Y-77660539D01*
X132043731Y-77925196D01*
X132031196Y-78197532D01*
X128307073Y-78197532D01*
X128307073Y-77376001D01*
X128294813Y-77251519D01*
X128269697Y-77168722D01*
X132643327Y-77168722D01*
X133420001Y-77945396D01*
X134196675Y-77168722D01*
X134131272Y-76929956D01*
X133884463Y-76814156D01*
X133619806Y-76748731D01*
X133347470Y-76736196D01*
X133077920Y-76777031D01*
X132821517Y-76869669D01*
X132708730Y-76929956D01*
X132643327Y-77168722D01*
X128269697Y-77168722D01*
X128258503Y-77131821D01*
X128199538Y-77021507D01*
X128120186Y-76924816D01*
X128023495Y-76845464D01*
X127913181Y-76786499D01*
X127901765Y-76783036D01*
X127974802Y-76710000D01*
X136272832Y-76710000D01*
X136140595Y-76736304D01*
X135897641Y-76836939D01*
X135678987Y-76983038D01*
X135493038Y-77168987D01*
X135432225Y-77260000D01*
X135137322Y-77260000D01*
X135099999Y-77256324D01*
X135062676Y-77260000D01*
X135062667Y-77260000D01*
X134951014Y-77270997D01*
X134807753Y-77314454D01*
X134675724Y-77385026D01*
X134622883Y-77428392D01*
X134615046Y-77413730D01*
X134376280Y-77348327D01*
X133599606Y-78125001D01*
X133613749Y-78139144D01*
X133434144Y-78318749D01*
X133420001Y-78304606D01*
X132643327Y-79081280D01*
X132708730Y-79320046D01*
X132955539Y-79435846D01*
X133220196Y-79501271D01*
X133492532Y-79513806D01*
X133762082Y-79472971D01*
X134018485Y-79380333D01*
X134110000Y-79331416D01*
X134110000Y-81419976D01*
X133884463Y-81314156D01*
X133619806Y-81248731D01*
X133347470Y-81236196D01*
X133077920Y-81277031D01*
X132821517Y-81369669D01*
X132708730Y-81429956D01*
X132643327Y-81668722D01*
X133420001Y-82445396D01*
X133434144Y-82431254D01*
X133613749Y-82610859D01*
X133599606Y-82625001D01*
X133613749Y-82639144D01*
X133434144Y-82818749D01*
X133420001Y-82804606D01*
X133405859Y-82818749D01*
X133226254Y-82639144D01*
X133240396Y-82625001D01*
X132463722Y-81848327D01*
X132224956Y-81913730D01*
X132109156Y-82160539D01*
X132043731Y-82425196D01*
X132031196Y-82697532D01*
X132067777Y-82939002D01*
X128268657Y-82939002D01*
X128304001Y-82761313D01*
X128304001Y-82488689D01*
X128250815Y-82221303D01*
X128146486Y-81969431D01*
X127995024Y-81742752D01*
X127802250Y-81549978D01*
X127575571Y-81398516D01*
X127323699Y-81294187D01*
X127056313Y-81241001D01*
X126783689Y-81241001D01*
X126516303Y-81294187D01*
X126264431Y-81398516D01*
X126037752Y-81549978D01*
X125844978Y-81742752D01*
X125693516Y-81969431D01*
X125589187Y-82221303D01*
X125536001Y-82488689D01*
X125536001Y-82761313D01*
X125571345Y-82939002D01*
X124348657Y-82939002D01*
X124384001Y-82761313D01*
X124384001Y-82488689D01*
X124330815Y-82221303D01*
X124226486Y-81969431D01*
X124075024Y-81742752D01*
X123882250Y-81549978D01*
X123655571Y-81398516D01*
X123403699Y-81294187D01*
X123136313Y-81241001D01*
X122863689Y-81241001D01*
X122596303Y-81294187D01*
X122344431Y-81398516D01*
X122117752Y-81549978D01*
X121924978Y-81742752D01*
X121773516Y-81969431D01*
X121669187Y-82221303D01*
X121616001Y-82488689D01*
X121616001Y-82761313D01*
X121651345Y-82939002D01*
X117848041Y-82939002D01*
X117876271Y-82824806D01*
X117888806Y-82552470D01*
X117847971Y-82282920D01*
X117755333Y-82026517D01*
X117695046Y-81913730D01*
X117456280Y-81848327D01*
X116679606Y-82625001D01*
X116693749Y-82639144D01*
X116514144Y-82818749D01*
X116500001Y-82804606D01*
X116485859Y-82818749D01*
X116306254Y-82639144D01*
X116320396Y-82625001D01*
X116306254Y-82610859D01*
X116485859Y-82431254D01*
X116500001Y-82445396D01*
X117276675Y-81668722D01*
X117211272Y-81429956D01*
X116964463Y-81314156D01*
X116699806Y-81248731D01*
X116427470Y-81236196D01*
X116157920Y-81277031D01*
X115901517Y-81369669D01*
X115788730Y-81429956D01*
X115723328Y-81668720D01*
X115690000Y-81635392D01*
X115690000Y-79717322D01*
X115693676Y-79679999D01*
X115690000Y-79642676D01*
X115690000Y-79642667D01*
X115679003Y-79531014D01*
X115670863Y-79504180D01*
X115751001Y-79512073D01*
X117249001Y-79512073D01*
X117373483Y-79499813D01*
X117493181Y-79463503D01*
X117603495Y-79404538D01*
X117700186Y-79325186D01*
X117779538Y-79228495D01*
X117838503Y-79118181D01*
X117874813Y-78998483D01*
X117887073Y-78874001D01*
X117887073Y-77988689D01*
X121616001Y-77988689D01*
X121616001Y-78261313D01*
X121669187Y-78528699D01*
X121773516Y-78780571D01*
X121924978Y-79007250D01*
X122117752Y-79200024D01*
X122344431Y-79351486D01*
X122596303Y-79455815D01*
X122863689Y-79509001D01*
X123136313Y-79509001D01*
X123403699Y-79455815D01*
X123655571Y-79351486D01*
X123882250Y-79200024D01*
X124075024Y-79007250D01*
X124226486Y-78780571D01*
X124330815Y-78528699D01*
X124384001Y-78261313D01*
X124384001Y-77988689D01*
X124330815Y-77721303D01*
X124226486Y-77469431D01*
X124075024Y-77242752D01*
X123882250Y-77049978D01*
X123655571Y-76898516D01*
X123403699Y-76794187D01*
X123136313Y-76741001D01*
X122863689Y-76741001D01*
X122596303Y-76794187D01*
X122344431Y-76898516D01*
X122117752Y-77049978D01*
X121924978Y-77242752D01*
X121773516Y-77469431D01*
X121669187Y-77721303D01*
X121616001Y-77988689D01*
X117887073Y-77988689D01*
X117887073Y-77376001D01*
X117874813Y-77251519D01*
X117838503Y-77131821D01*
X117779538Y-77021507D01*
X117700186Y-76924816D01*
X117603495Y-76845464D01*
X117493181Y-76786499D01*
X117373483Y-76750189D01*
X117260001Y-76739012D01*
X117260001Y-75537323D01*
X117263677Y-75500000D01*
X117260001Y-75462677D01*
X117260001Y-75462668D01*
X117249004Y-75351015D01*
X117205547Y-75207754D01*
X117134975Y-75075725D01*
X117040002Y-74960000D01*
X117011004Y-74936202D01*
X115823804Y-73749003D01*
X115800001Y-73719999D01*
X115684276Y-73625026D01*
X115552247Y-73554454D01*
X115408986Y-73510997D01*
X115297333Y-73500000D01*
X115297322Y-73500000D01*
X115260000Y-73496324D01*
X115222678Y-73500000D01*
X102866147Y-73500000D01*
X103113560Y-73129721D01*
X103293346Y-72695679D01*
X103385000Y-72234902D01*
X103385000Y-71765098D01*
X103293346Y-71304321D01*
X103113560Y-70870279D01*
X102852550Y-70479651D01*
X102520349Y-70147450D01*
X102129721Y-69886440D01*
X101695679Y-69706654D01*
X101461133Y-69660000D01*
X156538867Y-69660000D01*
X156304321Y-69706654D01*
%TA.AperFunction,Conductor*%
D31*
G36*
X156304321Y-69706654D02*
G01*
X155870279Y-69886440D01*
X155479651Y-70147450D01*
X155147450Y-70479651D01*
X154886440Y-70870279D01*
X154706654Y-71304321D01*
X154615000Y-71765098D01*
X154615000Y-72234902D01*
X154706654Y-72695679D01*
X154886440Y-73129721D01*
X155147450Y-73520349D01*
X155479651Y-73852550D01*
X155870279Y-74113560D01*
X156304321Y-74293346D01*
X156765098Y-74385000D01*
X157234902Y-74385000D01*
X157695679Y-74293346D01*
X158129721Y-74113560D01*
X158520349Y-73852550D01*
X158852550Y-73520349D01*
X159113560Y-73129721D01*
X159293346Y-72695679D01*
X159340000Y-72461133D01*
X159340001Y-107538872D01*
X159293346Y-107304321D01*
X159113560Y-106870279D01*
X158852550Y-106479651D01*
X158520349Y-106147450D01*
X158129721Y-105886440D01*
X157695679Y-105706654D01*
X157234902Y-105615000D01*
X156765098Y-105615000D01*
X156304321Y-105706654D01*
X156114284Y-105785370D01*
X156120000Y-105727333D01*
X156120000Y-105727324D01*
X156123676Y-105690001D01*
X156120000Y-105652678D01*
X156120000Y-82987323D01*
X156123676Y-82950000D01*
X156120000Y-82912677D01*
X156120000Y-82912667D01*
X156109003Y-82801014D01*
X156065546Y-82657753D01*
X156050304Y-82629237D01*
X155994974Y-82525723D01*
X155943226Y-82462669D01*
X155900001Y-82409999D01*
X155870998Y-82386197D01*
X155413804Y-81929003D01*
X155390001Y-81899999D01*
X155274276Y-81805026D01*
X155142247Y-81734454D01*
X154998986Y-81690997D01*
X154887333Y-81680000D01*
X154887322Y-81680000D01*
X154850000Y-81676324D01*
X154812678Y-81680000D01*
X146947323Y-81680000D01*
X146910000Y-81676324D01*
X146872677Y-81680000D01*
X146872667Y-81680000D01*
X146761014Y-81690997D01*
X146617753Y-81734454D01*
X146485724Y-81805026D01*
X146369999Y-81899999D01*
X146346196Y-81929003D01*
X146038998Y-82236201D01*
X146010000Y-82259999D01*
X145986202Y-82288997D01*
X145986201Y-82288998D01*
X145915026Y-82375724D01*
X145844454Y-82507754D01*
X145819814Y-82588985D01*
X145803754Y-82641928D01*
X144755000Y-82641928D01*
X144630518Y-82654188D01*
X144510820Y-82690498D01*
X144400506Y-82749463D01*
X144303815Y-82828815D01*
X144224463Y-82925506D01*
X144165498Y-83035820D01*
X144129188Y-83155518D01*
X144116928Y-83280000D01*
X144116928Y-84780000D01*
X144129188Y-84904482D01*
X144165498Y-85024180D01*
X144224463Y-85134494D01*
X144303815Y-85231185D01*
X144400506Y-85310537D01*
X144510820Y-85369502D01*
X144630518Y-85405812D01*
X144755000Y-85418072D01*
X145805000Y-85418072D01*
X145929482Y-85405812D01*
X146049180Y-85369502D01*
X146113902Y-85334907D01*
X146322601Y-85398215D01*
X146550000Y-85420612D01*
X146777400Y-85398215D01*
X146996060Y-85331885D01*
X147185001Y-85230894D01*
X147373941Y-85331885D01*
X147592601Y-85398215D01*
X147820000Y-85420612D01*
X148047400Y-85398215D01*
X148266060Y-85331885D01*
X148467579Y-85224171D01*
X148644212Y-85079212D01*
X148789171Y-84902579D01*
X148896885Y-84701059D01*
X148963215Y-84482399D01*
X148980000Y-84311978D01*
X148980000Y-83748021D01*
X148963215Y-83577600D01*
X148896885Y-83358940D01*
X148811930Y-83200000D01*
X154535199Y-83200000D01*
X154600000Y-83264801D01*
X154600000Y-92895128D01*
X154594974Y-92885724D01*
X154500001Y-92769999D01*
X154471004Y-92746202D01*
X153723803Y-91999002D01*
X153700001Y-91969999D01*
X153584276Y-91875026D01*
X153452247Y-91804454D01*
X153308986Y-91760997D01*
X153197333Y-91750000D01*
X153197322Y-91750000D01*
X153160000Y-91746324D01*
X153122678Y-91750000D01*
X148847333Y-91750000D01*
X148810000Y-91746323D01*
X148772667Y-91750000D01*
X148661014Y-91760997D01*
X148517753Y-91804454D01*
X148385724Y-91875026D01*
X148269999Y-91969999D01*
X148246200Y-91998998D01*
X147738998Y-92506201D01*
X147710000Y-92529999D01*
X147686202Y-92558997D01*
X147686201Y-92558998D01*
X147615026Y-92645724D01*
X147544454Y-92777754D01*
X147500998Y-92921015D01*
X147486324Y-93070000D01*
X147490001Y-93107332D01*
X147490001Y-93864962D01*
X147405820Y-93890498D01*
X147295506Y-93949463D01*
X147198815Y-94028815D01*
X147119463Y-94125506D01*
X147060498Y-94235820D01*
X147024188Y-94355518D01*
X147011928Y-94480000D01*
X147011928Y-95680000D01*
X147024188Y-95804482D01*
X147060498Y-95924180D01*
X147119463Y-96034494D01*
X147198815Y-96131185D01*
X147295506Y-96210537D01*
X147405820Y-96269502D01*
X147525518Y-96305812D01*
X147650000Y-96318072D01*
X148850000Y-96318072D01*
X148974482Y-96305812D01*
X149094180Y-96269502D01*
X149204494Y-96210537D01*
X149301185Y-96131185D01*
X149380537Y-96034494D01*
X149404858Y-95988994D01*
X149462736Y-96046872D01*
X149579842Y-95929766D01*
X149627148Y-96153348D01*
X149848516Y-96254237D01*
X150085313Y-96310000D01*
X150328438Y-96318495D01*
X150568549Y-96279395D01*
X150796418Y-96194202D01*
X150872852Y-96153348D01*
X150920159Y-95929764D01*
X150250000Y-95259605D01*
X150235858Y-95273748D01*
X150056253Y-95094143D01*
X150070395Y-95080000D01*
X150429605Y-95080000D01*
X151099764Y-95750159D01*
X151323348Y-95702852D01*
X151424237Y-95481484D01*
X151480000Y-95244687D01*
X151488495Y-95001562D01*
X151449395Y-94761451D01*
X151364202Y-94533582D01*
X151323348Y-94457148D01*
X151099764Y-94409841D01*
X150429605Y-95080000D01*
X150070395Y-95080000D01*
X150056253Y-95065858D01*
X150235858Y-94886253D01*
X150250000Y-94900395D01*
X150920159Y-94230236D01*
X150872852Y-94006652D01*
X150651484Y-93905763D01*
X150414687Y-93850000D01*
X150171562Y-93841505D01*
X149931451Y-93880605D01*
X149703582Y-93965798D01*
X149627148Y-94006652D01*
X149579842Y-94230234D01*
X149462736Y-94113128D01*
X149404858Y-94171006D01*
X149380537Y-94125506D01*
X149301185Y-94028815D01*
X149204494Y-93949463D01*
X149094180Y-93890498D01*
X149010000Y-93864962D01*
X149010000Y-93384801D01*
X149124802Y-93270000D01*
X152845199Y-93270000D01*
X153200000Y-93624802D01*
X153200001Y-103405197D01*
X152035199Y-104570000D01*
X144440002Y-104570000D01*
X144534974Y-104454276D01*
X144605546Y-104322247D01*
X144649003Y-104178986D01*
X144660000Y-104067333D01*
X144660000Y-104067325D01*
X144663676Y-104030000D01*
X144660000Y-103992675D01*
X144660000Y-102894142D01*
X144828184Y-102936300D01*
X145110512Y-102950217D01*
X145390130Y-102908787D01*
X145656292Y-102813603D01*
X145781514Y-102746671D01*
X145853097Y-102502702D01*
X145040000Y-101689605D01*
X145025858Y-101703748D01*
X144846253Y-101524143D01*
X144860395Y-101510000D01*
X145219605Y-101510000D01*
X146032702Y-102323097D01*
X146276671Y-102251514D01*
X146397571Y-101996004D01*
X146466300Y-101721816D01*
X146480217Y-101439488D01*
X146438787Y-101159870D01*
X146343603Y-100893708D01*
X146276671Y-100768486D01*
X146032702Y-100696903D01*
X145219605Y-101510000D01*
X144860395Y-101510000D01*
X144846253Y-101495858D01*
X145025858Y-101316253D01*
X145040000Y-101330395D01*
X145820395Y-100550000D01*
X147051928Y-100550000D01*
X147051928Y-101750000D01*
X147064188Y-101874482D01*
X147100498Y-101994180D01*
X147159463Y-102104494D01*
X147238815Y-102201185D01*
X147335506Y-102280537D01*
X147445820Y-102339502D01*
X147565518Y-102375812D01*
X147690000Y-102388072D01*
X148890000Y-102388072D01*
X149014482Y-102375812D01*
X149134180Y-102339502D01*
X149244494Y-102280537D01*
X149341185Y-102201185D01*
X149420537Y-102104494D01*
X149444858Y-102058994D01*
X149502736Y-102116872D01*
X149619842Y-101999766D01*
X149667148Y-102223348D01*
X149888516Y-102324237D01*
X150125313Y-102380000D01*
X150368438Y-102388495D01*
X150608549Y-102349395D01*
X150836418Y-102264202D01*
X150912852Y-102223348D01*
X150960159Y-101999764D01*
X150290000Y-101329605D01*
X150275858Y-101343748D01*
X150096253Y-101164143D01*
X150110395Y-101150000D01*
X150469605Y-101150000D01*
X151139764Y-101820159D01*
X151363348Y-101772852D01*
X151464237Y-101551484D01*
X151520000Y-101314687D01*
X151528495Y-101071562D01*
X151489395Y-100831451D01*
X151404202Y-100603582D01*
X151363348Y-100527148D01*
X151139764Y-100479841D01*
X150469605Y-101150000D01*
X150110395Y-101150000D01*
X150096253Y-101135858D01*
X150275858Y-100956253D01*
X150290000Y-100970395D01*
X150960159Y-100300236D01*
X150912852Y-100076652D01*
X150691484Y-99975763D01*
X150454687Y-99920000D01*
X150211562Y-99911505D01*
X149971451Y-99950605D01*
X149743582Y-100035798D01*
X149667148Y-100076652D01*
X149619842Y-100300234D01*
X149502736Y-100183128D01*
X149444858Y-100241006D01*
X149420537Y-100195506D01*
X149341185Y-100098815D01*
X149244494Y-100019463D01*
X149134180Y-99960498D01*
X149014482Y-99924188D01*
X148890000Y-99911928D01*
X147690000Y-99911928D01*
X147565518Y-99924188D01*
X147445820Y-99960498D01*
X147335506Y-100019463D01*
X147238815Y-100098815D01*
X147159463Y-100195506D01*
X147100498Y-100305820D01*
X147064188Y-100425518D01*
X147051928Y-100550000D01*
X145820395Y-100550000D01*
X145853097Y-100517298D01*
X145781514Y-100273329D01*
X145674984Y-100222922D01*
X145761514Y-100176671D01*
X145833097Y-99932702D01*
X145020000Y-99119605D01*
X145005858Y-99133748D01*
X144826253Y-98954143D01*
X144840395Y-98940000D01*
X145199605Y-98940000D01*
X146012702Y-99753097D01*
X146256671Y-99681514D01*
X146377571Y-99426004D01*
X146446300Y-99151816D01*
X146460217Y-98869488D01*
X146418787Y-98589870D01*
X146323603Y-98323708D01*
X146256671Y-98198486D01*
X146012702Y-98126903D01*
X145199605Y-98940000D01*
X144840395Y-98940000D01*
X144027298Y-98126903D01*
X143811400Y-98190250D01*
X143740207Y-98183238D01*
X143634637Y-98025241D01*
X143556694Y-97947298D01*
X144206903Y-97947298D01*
X145020000Y-98760395D01*
X145833097Y-97947298D01*
X145761514Y-97703329D01*
X145506004Y-97582429D01*
X145231816Y-97513700D01*
X144949488Y-97499783D01*
X144669870Y-97541213D01*
X144403708Y-97636397D01*
X144278486Y-97703329D01*
X144206903Y-97947298D01*
X143556694Y-97947298D01*
X143434759Y-97825363D01*
X143199727Y-97668320D01*
X142938574Y-97560147D01*
X142661335Y-97505000D01*
X142378665Y-97505000D01*
X142101426Y-97560147D01*
X141840273Y-97668320D01*
X141740001Y-97735319D01*
X141740001Y-95989606D01*
X141765506Y-96010537D01*
X141875820Y-96069502D01*
X141995518Y-96105812D01*
X142120000Y-96118072D01*
X143320000Y-96118072D01*
X143444482Y-96105812D01*
X143564180Y-96069502D01*
X143674494Y-96010537D01*
X143771185Y-95931185D01*
X143850537Y-95834494D01*
X143874858Y-95788994D01*
X143932736Y-95846872D01*
X144049842Y-95729766D01*
X144097148Y-95953348D01*
X144318516Y-96054237D01*
X144555313Y-96110000D01*
X144798438Y-96118495D01*
X145038549Y-96079395D01*
X145266418Y-95994202D01*
X145342852Y-95953348D01*
X145390159Y-95729764D01*
X144720000Y-95059605D01*
X144705858Y-95073748D01*
X144526253Y-94894143D01*
X144540395Y-94880000D01*
X144899605Y-94880000D01*
X145569764Y-95550159D01*
X145793348Y-95502852D01*
X145894237Y-95281484D01*
X145950000Y-95044687D01*
X145958495Y-94801562D01*
X145919395Y-94561451D01*
X145834202Y-94333582D01*
X145793348Y-94257148D01*
X145569764Y-94209841D01*
X144899605Y-94880000D01*
X144540395Y-94880000D01*
X144526253Y-94865858D01*
X144705858Y-94686253D01*
X144720000Y-94700395D01*
X145390159Y-94030236D01*
X145342852Y-93806652D01*
X145121484Y-93705763D01*
X144884687Y-93650000D01*
X144641562Y-93641505D01*
X144401451Y-93680605D01*
X144173582Y-93765798D01*
X144097148Y-93806652D01*
X144049842Y-94030234D01*
X144010000Y-93990392D01*
X144010000Y-90460000D01*
X144141928Y-90460000D01*
X144154188Y-90584482D01*
X144190498Y-90704180D01*
X144249463Y-90814494D01*
X144328815Y-90911185D01*
X144425506Y-90990537D01*
X144535820Y-91049502D01*
X144655518Y-91085812D01*
X144780000Y-91098072D01*
X145394250Y-91095000D01*
X145553000Y-90936250D01*
X145553000Y-89687000D01*
X144303750Y-89687000D01*
X144145000Y-89845750D01*
X144141928Y-90460000D01*
X144010000Y-90460000D01*
X144010000Y-88660000D01*
X144141928Y-88660000D01*
X144145000Y-89274250D01*
X144303750Y-89433000D01*
X145553000Y-89433000D01*
X145553000Y-88183750D01*
X145807000Y-88183750D01*
X145807000Y-89433000D01*
X145827000Y-89433000D01*
X145827000Y-89687000D01*
X145807000Y-89687000D01*
X145807000Y-90936250D01*
X145965750Y-91095000D01*
X146580000Y-91098072D01*
X146704482Y-91085812D01*
X146824180Y-91049502D01*
X146934494Y-90990537D01*
X147031185Y-90911185D01*
X147110537Y-90814494D01*
X147169502Y-90704180D01*
X147175056Y-90685873D01*
X147241495Y-90752312D01*
X147492905Y-90920299D01*
X147772257Y-91036011D01*
X148068816Y-91095000D01*
X148371184Y-91095000D01*
X148667743Y-91036011D01*
X148947095Y-90920299D01*
X149198505Y-90752312D01*
X149412312Y-90538505D01*
X149580299Y-90287095D01*
X149696011Y-90007743D01*
X149755000Y-89711184D01*
X149755000Y-89408816D01*
X149696011Y-89112257D01*
X149580299Y-88832905D01*
X149412312Y-88581495D01*
X149198505Y-88367688D01*
X148947095Y-88199701D01*
X148827107Y-88150000D01*
X150321928Y-88150000D01*
X150321928Y-89850000D01*
X150334188Y-89974482D01*
X150370498Y-90094180D01*
X150429463Y-90204494D01*
X150508815Y-90301185D01*
X150605506Y-90380537D01*
X150715820Y-90439502D01*
X150835518Y-90475812D01*
X150960000Y-90488072D01*
X152660000Y-90488072D01*
X152784482Y-90475812D01*
X152904180Y-90439502D01*
X153014494Y-90380537D01*
X153111185Y-90301185D01*
X153190537Y-90204494D01*
X153249502Y-90094180D01*
X153285812Y-89974482D01*
X153298072Y-89850000D01*
X153298072Y-88150000D01*
X153285812Y-88025518D01*
X153249502Y-87905820D01*
X153190537Y-87795506D01*
X153111185Y-87698815D01*
X153014494Y-87619463D01*
X152904180Y-87560498D01*
X152831620Y-87538487D01*
X152963475Y-87406632D01*
X153125990Y-87163411D01*
X153237932Y-86893158D01*
X153295000Y-86606260D01*
X153295000Y-86313740D01*
X153237932Y-86026842D01*
X153125990Y-85756589D01*
X152963475Y-85513368D01*
X152756632Y-85306525D01*
X152513411Y-85144010D01*
X152243158Y-85032068D01*
X151956260Y-84975000D01*
X151663740Y-84975000D01*
X151376842Y-85032068D01*
X151106589Y-85144010D01*
X150863368Y-85306525D01*
X150656525Y-85513368D01*
X150494010Y-85756589D01*
X150382068Y-86026842D01*
X150325000Y-86313740D01*
X150325000Y-86606260D01*
X150382068Y-86893158D01*
X150494010Y-87163411D01*
X150656525Y-87406632D01*
X150788380Y-87538487D01*
X150715820Y-87560498D01*
X150605506Y-87619463D01*
X150508815Y-87698815D01*
X150429463Y-87795506D01*
X150370498Y-87905820D01*
X150334188Y-88025518D01*
X150321928Y-88150000D01*
X148827107Y-88150000D01*
X148667743Y-88083989D01*
X148371184Y-88025000D01*
X148068816Y-88025000D01*
X147772257Y-88083989D01*
X147492905Y-88199701D01*
X147241495Y-88367688D01*
X147175056Y-88434127D01*
X147169502Y-88415820D01*
X147110537Y-88305506D01*
X147031185Y-88208815D01*
X146934494Y-88129463D01*
X146824180Y-88070498D01*
X146704482Y-88034188D01*
X146580000Y-88021928D01*
X145965750Y-88025000D01*
X145807000Y-88183750D01*
X145553000Y-88183750D01*
X145394250Y-88025000D01*
X144780000Y-88021928D01*
X144655518Y-88034188D01*
X144535820Y-88070498D01*
X144425506Y-88129463D01*
X144328815Y-88208815D01*
X144249463Y-88305506D01*
X144190498Y-88415820D01*
X144154188Y-88535518D01*
X144141928Y-88660000D01*
X144010000Y-88660000D01*
X144010000Y-82537335D01*
X144013677Y-82500002D01*
X143999003Y-82351016D01*
X143955546Y-82207755D01*
X143884974Y-82075726D01*
X143822826Y-81999999D01*
X143790001Y-81960001D01*
X143761004Y-81936204D01*
X143208802Y-81384003D01*
X143185000Y-81355000D01*
X143069275Y-81260027D01*
X142937246Y-81189455D01*
X142848292Y-81162471D01*
X142749374Y-80997000D01*
X141707000Y-80997000D01*
X141707000Y-81017000D01*
X141453000Y-81017000D01*
X141453000Y-80997000D01*
X140410626Y-80997000D01*
X140328130Y-81135001D01*
X137808442Y-81135001D01*
X137835000Y-81001486D01*
X137835000Y-80738514D01*
X137794851Y-80536671D01*
X140287284Y-80536671D01*
X140410626Y-80743000D01*
X141453000Y-80743000D01*
X141453000Y-79699799D01*
X141707000Y-79699799D01*
X141707000Y-80743000D01*
X142749374Y-80743000D01*
X142872716Y-80536671D01*
X142840047Y-80428956D01*
X142729792Y-80191608D01*
X142575351Y-79980330D01*
X142382660Y-79803241D01*
X142159123Y-79667147D01*
X141913330Y-79577278D01*
X141707000Y-79699799D01*
X141453000Y-79699799D01*
X141246670Y-79577278D01*
X141000877Y-79667147D01*
X140777340Y-79803241D01*
X140584649Y-79980330D01*
X140430208Y-80191608D01*
X140319953Y-80428956D01*
X140287284Y-80536671D01*
X137794851Y-80536671D01*
X137783696Y-80480595D01*
X137683061Y-80237641D01*
X137536962Y-80018987D01*
X137351013Y-79833038D01*
X137132359Y-79686939D01*
X136889405Y-79586304D01*
X136631486Y-79535000D01*
X136368514Y-79535000D01*
X136110595Y-79586304D01*
X135867641Y-79686939D01*
X135648987Y-79833038D01*
X135630000Y-79852025D01*
X135630000Y-79007975D01*
X135678987Y-79056962D01*
X135897641Y-79203061D01*
X136140595Y-79303696D01*
X136398514Y-79355000D01*
X136661486Y-79355000D01*
X136919405Y-79303696D01*
X137162359Y-79203061D01*
X137381013Y-79056962D01*
X137566962Y-78871013D01*
X137713061Y-78652359D01*
X137813696Y-78409405D01*
X137865000Y-78151486D01*
X137865000Y-77888514D01*
X137813696Y-77630595D01*
X137713061Y-77387641D01*
X137566962Y-77168987D01*
X137381013Y-76983038D01*
X137162359Y-76836939D01*
X136919405Y-76736304D01*
X136787168Y-76710000D01*
X140845199Y-76710000D01*
X140850001Y-76714802D01*
X140850001Y-76922225D01*
X140758987Y-76983038D01*
X140573038Y-77168987D01*
X140426939Y-77387641D01*
X140326304Y-77630595D01*
X140275000Y-77888514D01*
X140275000Y-78151486D01*
X140326304Y-78409405D01*
X140426939Y-78652359D01*
X140573038Y-78871013D01*
X140758987Y-79056962D01*
X140977641Y-79203061D01*
X141220595Y-79303696D01*
X141478514Y-79355000D01*
X141741486Y-79355000D01*
X141999405Y-79303696D01*
X142242359Y-79203061D01*
X142461013Y-79056962D01*
X142646962Y-78871013D01*
X142793061Y-78652359D01*
X142893696Y-78409405D01*
X142945000Y-78151486D01*
X142945000Y-77888514D01*
X142893696Y-77630595D01*
X142802323Y-77410000D01*
X143351928Y-77410000D01*
X143351928Y-79110000D01*
X143364188Y-79234482D01*
X143400498Y-79354180D01*
X143459463Y-79464494D01*
X143538815Y-79561185D01*
X143635506Y-79640537D01*
X143745820Y-79699502D01*
X143865518Y-79735812D01*
X143990000Y-79748072D01*
X145690000Y-79748072D01*
X145814482Y-79735812D01*
X145934180Y-79699502D01*
X146044494Y-79640537D01*
X146141185Y-79561185D01*
X146220537Y-79464494D01*
X146279502Y-79354180D01*
X146303966Y-79273534D01*
X146379731Y-79357588D01*
X146613080Y-79531641D01*
X146875901Y-79656825D01*
X147023110Y-79701476D01*
X147253000Y-79580155D01*
X147253000Y-78387000D01*
X147507000Y-78387000D01*
X147507000Y-79580155D01*
X147736890Y-79701476D01*
X147884099Y-79656825D01*
X148146920Y-79531641D01*
X148380269Y-79357588D01*
X148575178Y-79141355D01*
X148724157Y-78891252D01*
X148821481Y-78616891D01*
X148700814Y-78387000D01*
X147507000Y-78387000D01*
X147253000Y-78387000D01*
X147233000Y-78387000D01*
X147233000Y-78150000D01*
X149806928Y-78150000D01*
X149806928Y-79650000D01*
X149819188Y-79774482D01*
X149855498Y-79894180D01*
X149914463Y-80004494D01*
X149993815Y-80101185D01*
X150090506Y-80180537D01*
X150200820Y-80239502D01*
X150320518Y-80275812D01*
X150445000Y-80288072D01*
X151495000Y-80288072D01*
X151619482Y-80275812D01*
X151739180Y-80239502D01*
X151803902Y-80204907D01*
X152012601Y-80268215D01*
X152240000Y-80290612D01*
X152467400Y-80268215D01*
X152686060Y-80201885D01*
X152874669Y-80101071D01*
X152933118Y-80142275D01*
X153142663Y-80235272D01*
X153204190Y-80243964D01*
X153383000Y-80118163D01*
X153383000Y-79353108D01*
X153383215Y-79352399D01*
X153400000Y-79181978D01*
X153400000Y-79027000D01*
X153637000Y-79027000D01*
X153637000Y-80118163D01*
X153815810Y-80243964D01*
X153877337Y-80235272D01*
X154086882Y-80142275D01*
X154274258Y-80010184D01*
X154432264Y-79844076D01*
X154554828Y-79650334D01*
X154637239Y-79436404D01*
X154676331Y-79210507D01*
X154516598Y-79027000D01*
X153637000Y-79027000D01*
X153400000Y-79027000D01*
X153400000Y-78618021D01*
X153383215Y-78447600D01*
X153383000Y-78446891D01*
X153383000Y-77681837D01*
X153637000Y-77681837D01*
X153637000Y-78773000D01*
X154516598Y-78773000D01*
X154676331Y-78589493D01*
X154637239Y-78363596D01*
X154554828Y-78149666D01*
X154432264Y-77955924D01*
X154274258Y-77789816D01*
X154086882Y-77657725D01*
X153877337Y-77564728D01*
X153815810Y-77556036D01*
X153637000Y-77681837D01*
X153383000Y-77681837D01*
X153204190Y-77556036D01*
X153142663Y-77564728D01*
X152933118Y-77657725D01*
X152874669Y-77698929D01*
X152686059Y-77598115D01*
X152467399Y-77531785D01*
X152240000Y-77509388D01*
X152012600Y-77531785D01*
X151803902Y-77595093D01*
X151739180Y-77560498D01*
X151619482Y-77524188D01*
X151495000Y-77511928D01*
X150445000Y-77511928D01*
X150320518Y-77524188D01*
X150200820Y-77560498D01*
X150090506Y-77619463D01*
X149993815Y-77698815D01*
X149914463Y-77795506D01*
X149855498Y-77905820D01*
X149819188Y-78025518D01*
X149806928Y-78150000D01*
X147233000Y-78150000D01*
X147233000Y-78133000D01*
X147253000Y-78133000D01*
X147253000Y-76939845D01*
X147507000Y-76939845D01*
X147507000Y-78133000D01*
X148700814Y-78133000D01*
X148821481Y-77903109D01*
X148724157Y-77628748D01*
X148575178Y-77378645D01*
X148380269Y-77162412D01*
X148146920Y-76988359D01*
X147884099Y-76863175D01*
X147736890Y-76818524D01*
X147507000Y-76939845D01*
X147253000Y-76939845D01*
X147023110Y-76818524D01*
X146875901Y-76863175D01*
X146613080Y-76988359D01*
X146379731Y-77162412D01*
X146303966Y-77246466D01*
X146279502Y-77165820D01*
X146220537Y-77055506D01*
X146141185Y-76958815D01*
X146044494Y-76879463D01*
X145934180Y-76820498D01*
X145814482Y-76784188D01*
X145690000Y-76771928D01*
X143990000Y-76771928D01*
X143865518Y-76784188D01*
X143745820Y-76820498D01*
X143635506Y-76879463D01*
X143538815Y-76958815D01*
X143459463Y-77055506D01*
X143400498Y-77165820D01*
X143364188Y-77285518D01*
X143351928Y-77410000D01*
X142802323Y-77410000D01*
X142793061Y-77387641D01*
X142646962Y-77168987D01*
X142461013Y-76983038D01*
X142370000Y-76922225D01*
X142370000Y-76437322D01*
X142373676Y-76399999D01*
X142370000Y-76362676D01*
X142370000Y-76362667D01*
X142359003Y-76251014D01*
X142315546Y-76107753D01*
X142279332Y-76040002D01*
X142244974Y-75975723D01*
X142202752Y-75924276D01*
X142150001Y-75859999D01*
X142120997Y-75836196D01*
X141723804Y-75439003D01*
X141700001Y-75409999D01*
X141584276Y-75315026D01*
X141452247Y-75244454D01*
X141308986Y-75200997D01*
X141197333Y-75190000D01*
X141197322Y-75190000D01*
X141160000Y-75186324D01*
X141122678Y-75190000D01*
X127697333Y-75190000D01*
X127660000Y-75186323D01*
X127622667Y-75190000D01*
X127511014Y-75200997D01*
X127367753Y-75244454D01*
X127235724Y-75315026D01*
X127119999Y-75409999D01*
X127096201Y-75438998D01*
X126409003Y-76126196D01*
X126380000Y-76149998D01*
X126334413Y-76205547D01*
X126285027Y-76265723D01*
X126233209Y-76362667D01*
X126214455Y-76397753D01*
X126170998Y-76541014D01*
X126160001Y-76652667D01*
X126160001Y-76652677D01*
X126156325Y-76689999D01*
X126160001Y-76727322D01*
X126160001Y-76739012D01*
X126046519Y-76750189D01*
X125926821Y-76786499D01*
X125816507Y-76845464D01*
X125719816Y-76924816D01*
X125640464Y-77021507D01*
X125581499Y-77131821D01*
X125545189Y-77251519D01*
X125532929Y-77376001D01*
X125532929Y-78874001D01*
X125545189Y-78998483D01*
X125581499Y-79118181D01*
X125640464Y-79228495D01*
X125719816Y-79325186D01*
X125816507Y-79404538D01*
X125926821Y-79463503D01*
X126046519Y-79499813D01*
X126171001Y-79512073D01*
X127669001Y-79512073D01*
X127793483Y-79499813D01*
X127913181Y-79463503D01*
X128023495Y-79404538D01*
X128120186Y-79325186D01*
X128199538Y-79228495D01*
X128258503Y-79118181D01*
X128294813Y-78998483D01*
X128307073Y-78874001D01*
X128307073Y-78197532D01*
X132031196Y-78197532D01*
X132072031Y-78467082D01*
X132164669Y-78723485D01*
X132224956Y-78836272D01*
X132463722Y-78901675D01*
X133240396Y-78125001D01*
X132463722Y-77348327D01*
X132224956Y-77413730D01*
X132109156Y-77660539D01*
X132043731Y-77925196D01*
X132031196Y-78197532D01*
X128307073Y-78197532D01*
X128307073Y-77376001D01*
X128294813Y-77251519D01*
X128269697Y-77168722D01*
X132643327Y-77168722D01*
X133420001Y-77945396D01*
X134196675Y-77168722D01*
X134131272Y-76929956D01*
X133884463Y-76814156D01*
X133619806Y-76748731D01*
X133347470Y-76736196D01*
X133077920Y-76777031D01*
X132821517Y-76869669D01*
X132708730Y-76929956D01*
X132643327Y-77168722D01*
X128269697Y-77168722D01*
X128258503Y-77131821D01*
X128199538Y-77021507D01*
X128120186Y-76924816D01*
X128023495Y-76845464D01*
X127913181Y-76786499D01*
X127901765Y-76783036D01*
X127974802Y-76710000D01*
X136272832Y-76710000D01*
X136140595Y-76736304D01*
X135897641Y-76836939D01*
X135678987Y-76983038D01*
X135493038Y-77168987D01*
X135432225Y-77260000D01*
X135137322Y-77260000D01*
X135099999Y-77256324D01*
X135062676Y-77260000D01*
X135062667Y-77260000D01*
X134951014Y-77270997D01*
X134807753Y-77314454D01*
X134675724Y-77385026D01*
X134622883Y-77428392D01*
X134615046Y-77413730D01*
X134376280Y-77348327D01*
X133599606Y-78125001D01*
X133613749Y-78139144D01*
X133434144Y-78318749D01*
X133420001Y-78304606D01*
X132643327Y-79081280D01*
X132708730Y-79320046D01*
X132955539Y-79435846D01*
X133220196Y-79501271D01*
X133492532Y-79513806D01*
X133762082Y-79472971D01*
X134018485Y-79380333D01*
X134110000Y-79331416D01*
X134110000Y-81419976D01*
X133884463Y-81314156D01*
X133619806Y-81248731D01*
X133347470Y-81236196D01*
X133077920Y-81277031D01*
X132821517Y-81369669D01*
X132708730Y-81429956D01*
X132643327Y-81668722D01*
X133420001Y-82445396D01*
X133434144Y-82431254D01*
X133613749Y-82610859D01*
X133599606Y-82625001D01*
X133613749Y-82639144D01*
X133434144Y-82818749D01*
X133420001Y-82804606D01*
X133405859Y-82818749D01*
X133226254Y-82639144D01*
X133240396Y-82625001D01*
X132463722Y-81848327D01*
X132224956Y-81913730D01*
X132109156Y-82160539D01*
X132043731Y-82425196D01*
X132031196Y-82697532D01*
X132067777Y-82939002D01*
X128268657Y-82939002D01*
X128304001Y-82761313D01*
X128304001Y-82488689D01*
X128250815Y-82221303D01*
X128146486Y-81969431D01*
X127995024Y-81742752D01*
X127802250Y-81549978D01*
X127575571Y-81398516D01*
X127323699Y-81294187D01*
X127056313Y-81241001D01*
X126783689Y-81241001D01*
X126516303Y-81294187D01*
X126264431Y-81398516D01*
X126037752Y-81549978D01*
X125844978Y-81742752D01*
X125693516Y-81969431D01*
X125589187Y-82221303D01*
X125536001Y-82488689D01*
X125536001Y-82761313D01*
X125571345Y-82939002D01*
X124348657Y-82939002D01*
X124384001Y-82761313D01*
X124384001Y-82488689D01*
X124330815Y-82221303D01*
X124226486Y-81969431D01*
X124075024Y-81742752D01*
X123882250Y-81549978D01*
X123655571Y-81398516D01*
X123403699Y-81294187D01*
X123136313Y-81241001D01*
X122863689Y-81241001D01*
X122596303Y-81294187D01*
X122344431Y-81398516D01*
X122117752Y-81549978D01*
X121924978Y-81742752D01*
X121773516Y-81969431D01*
X121669187Y-82221303D01*
X121616001Y-82488689D01*
X121616001Y-82761313D01*
X121651345Y-82939002D01*
X117848041Y-82939002D01*
X117876271Y-82824806D01*
X117888806Y-82552470D01*
X117847971Y-82282920D01*
X117755333Y-82026517D01*
X117695046Y-81913730D01*
X117456280Y-81848327D01*
X116679606Y-82625001D01*
X116693749Y-82639144D01*
X116514144Y-82818749D01*
X116500001Y-82804606D01*
X116485859Y-82818749D01*
X116306254Y-82639144D01*
X116320396Y-82625001D01*
X116306254Y-82610859D01*
X116485859Y-82431254D01*
X116500001Y-82445396D01*
X117276675Y-81668722D01*
X117211272Y-81429956D01*
X116964463Y-81314156D01*
X116699806Y-81248731D01*
X116427470Y-81236196D01*
X116157920Y-81277031D01*
X115901517Y-81369669D01*
X115788730Y-81429956D01*
X115723328Y-81668720D01*
X115690000Y-81635392D01*
X115690000Y-79717322D01*
X115693676Y-79679999D01*
X115690000Y-79642676D01*
X115690000Y-79642667D01*
X115679003Y-79531014D01*
X115670863Y-79504180D01*
X115751001Y-79512073D01*
X117249001Y-79512073D01*
X117373483Y-79499813D01*
X117493181Y-79463503D01*
X117603495Y-79404538D01*
X117700186Y-79325186D01*
X117779538Y-79228495D01*
X117838503Y-79118181D01*
X117874813Y-78998483D01*
X117887073Y-78874001D01*
X117887073Y-77988689D01*
X121616001Y-77988689D01*
X121616001Y-78261313D01*
X121669187Y-78528699D01*
X121773516Y-78780571D01*
X121924978Y-79007250D01*
X122117752Y-79200024D01*
X122344431Y-79351486D01*
X122596303Y-79455815D01*
X122863689Y-79509001D01*
X123136313Y-79509001D01*
X123403699Y-79455815D01*
X123655571Y-79351486D01*
X123882250Y-79200024D01*
X124075024Y-79007250D01*
X124226486Y-78780571D01*
X124330815Y-78528699D01*
X124384001Y-78261313D01*
X124384001Y-77988689D01*
X124330815Y-77721303D01*
X124226486Y-77469431D01*
X124075024Y-77242752D01*
X123882250Y-77049978D01*
X123655571Y-76898516D01*
X123403699Y-76794187D01*
X123136313Y-76741001D01*
X122863689Y-76741001D01*
X122596303Y-76794187D01*
X122344431Y-76898516D01*
X122117752Y-77049978D01*
X121924978Y-77242752D01*
X121773516Y-77469431D01*
X121669187Y-77721303D01*
X121616001Y-77988689D01*
X117887073Y-77988689D01*
X117887073Y-77376001D01*
X117874813Y-77251519D01*
X117838503Y-77131821D01*
X117779538Y-77021507D01*
X117700186Y-76924816D01*
X117603495Y-76845464D01*
X117493181Y-76786499D01*
X117373483Y-76750189D01*
X117260001Y-76739012D01*
X117260001Y-75537323D01*
X117263677Y-75500000D01*
X117260001Y-75462677D01*
X117260001Y-75462668D01*
X117249004Y-75351015D01*
X117205547Y-75207754D01*
X117134975Y-75075725D01*
X117040002Y-74960000D01*
X117011004Y-74936202D01*
X115823804Y-73749003D01*
X115800001Y-73719999D01*
X115684276Y-73625026D01*
X115552247Y-73554454D01*
X115408986Y-73510997D01*
X115297333Y-73500000D01*
X115297322Y-73500000D01*
X115260000Y-73496324D01*
X115222678Y-73500000D01*
X102866147Y-73500000D01*
X103113560Y-73129721D01*
X103293346Y-72695679D01*
X103385000Y-72234902D01*
X103385000Y-71765098D01*
X103293346Y-71304321D01*
X103113560Y-70870279D01*
X102852550Y-70479651D01*
X102520349Y-70147450D01*
X102129721Y-69886440D01*
X101695679Y-69706654D01*
X101461133Y-69660000D01*
X156538867Y-69660000D01*
X156304321Y-69706654D01*
G37*
%TD.AperFunction*%
D30*
X140496939Y-82817641D02*
X140396304Y-83060595D01*
X140345000Y-83318514D01*
X140345000Y-83581486D01*
X140368099Y-83697610D01*
X140345027Y-83725723D01*
X140308290Y-83794453D01*
X140274455Y-83857753D01*
X140230998Y-84001014D01*
X140220001Y-84112667D01*
X140220001Y-84112677D01*
X140216325Y-84149999D01*
X140220001Y-84187321D01*
X140220001Y-88188291D01*
X140041883Y-88062726D01*
X139832338Y-87969729D01*
X139770811Y-87961037D01*
X139592001Y-88086838D01*
X139592001Y-89178001D01*
X139612001Y-89178001D01*
X139612001Y-89432001D01*
X139592001Y-89432001D01*
X139592001Y-90523164D01*
X139770811Y-90648965D01*
X139832338Y-90640273D01*
X140041883Y-90547276D01*
X140220001Y-90421711D01*
X140220002Y-101145196D01*
X139805199Y-101560000D01*
X138564709Y-101560000D01*
X138649992Y-101490010D01*
X138673794Y-101461007D01*
X139291004Y-100843798D01*
X139320001Y-100820001D01*
X139414974Y-100704276D01*
X139485546Y-100572247D01*
X139529003Y-100428986D01*
X139540000Y-100317333D01*
X139540000Y-100317323D01*
X139543676Y-100280000D01*
X139540000Y-100242677D01*
X139540000Y-93307323D01*
X139543676Y-93270000D01*
X139540000Y-93232677D01*
X139540000Y-93232667D01*
X139529003Y-93121014D01*
X139485546Y-92977753D01*
X139414974Y-92845724D01*
X139320001Y-92729999D01*
X139291003Y-92706201D01*
X137883804Y-91299003D01*
X137860001Y-91269999D01*
X137744276Y-91175026D01*
X137612247Y-91104454D01*
X137468986Y-91060997D01*
X137357333Y-91050000D01*
X137357322Y-91050000D01*
X137320000Y-91046324D01*
X137282678Y-91050000D01*
X134857322Y-91050000D01*
X134819999Y-91046324D01*
X134782676Y-91050000D01*
X134782667Y-91050000D01*
X134671014Y-91060997D01*
X134548792Y-91098072D01*
X134527753Y-91104454D01*
X134395723Y-91175026D01*
X134334829Y-91225001D01*
X134279999Y-91269999D01*
X134256201Y-91298998D01*
X133569002Y-91986197D01*
X133539999Y-92009999D01*
X133490766Y-92069990D01*
X133445026Y-92125724D01*
X133387003Y-92234276D01*
X133374454Y-92257754D01*
X133330997Y-92401015D01*
X133320000Y-92512668D01*
X133320000Y-92512678D01*
X133316324Y-92550000D01*
X133320000Y-92587323D01*
X133320000Y-93041928D01*
X133180000Y-93041928D01*
X133055518Y-93054188D01*
X132935820Y-93090498D01*
X132825506Y-93149463D01*
X132728815Y-93228815D01*
X132649463Y-93325506D01*
X132590498Y-93435820D01*
X132554188Y-93555518D01*
X132541928Y-93680000D01*
X132541928Y-95480000D01*
X132554188Y-95604482D01*
X132590498Y-95724180D01*
X132649463Y-95834494D01*
X132728815Y-95931185D01*
X132825506Y-96010537D01*
X132935820Y-96069502D01*
X133055518Y-96105812D01*
X133180000Y-96118072D01*
X134980000Y-96118072D01*
X135104482Y-96105812D01*
X135224180Y-96069502D01*
X135334494Y-96010537D01*
X135431185Y-95931185D01*
X135510537Y-95834494D01*
X135569502Y-95724180D01*
X135575056Y-95705873D01*
X135641495Y-95772312D01*
X135892905Y-95940299D01*
X136172257Y-96056011D01*
X136468816Y-96115000D01*
X136771184Y-96115000D01*
X137067743Y-96056011D01*
X137347095Y-95940299D01*
X137598505Y-95772312D01*
X137812312Y-95558505D01*
X137980299Y-95307095D01*
X138020001Y-95211247D01*
X138020000Y-99965198D01*
X137795190Y-100190009D01*
X135497314Y-100190009D01*
X135459991Y-100186333D01*
X135422668Y-100190009D01*
X135422658Y-100190009D01*
X135311005Y-100201006D01*
X135167744Y-100244463D01*
X135035715Y-100315035D01*
X134919990Y-100410008D01*
X134896192Y-100439006D01*
X134553270Y-100781928D01*
X133190000Y-100781928D01*
X133065518Y-100794188D01*
X132945820Y-100830498D01*
X132835506Y-100889463D01*
X132738815Y-100968815D01*
X132659463Y-101065506D01*
X132600498Y-101175820D01*
X132564188Y-101295518D01*
X132551928Y-101420000D01*
X132551928Y-103220000D01*
X132564188Y-103344482D01*
X132596197Y-103450000D01*
X124234802Y-103450000D01*
X123990000Y-103205199D01*
X123990000Y-100650000D01*
X124131928Y-100650000D01*
X124131928Y-102350000D01*
X124144188Y-102474482D01*
X124180498Y-102594180D01*
X124239463Y-102704494D01*
X124318815Y-102801185D01*
X124415506Y-102880537D01*
X124525820Y-102939502D01*
X124645518Y-102975812D01*
X124770000Y-102988072D01*
X126470000Y-102988072D01*
X126594482Y-102975812D01*
X126714180Y-102939502D01*
X126824494Y-102880537D01*
X126921185Y-102801185D01*
X127000537Y-102704494D01*
X127059502Y-102594180D01*
X127083966Y-102513534D01*
X127159731Y-102597588D01*
X127393080Y-102771641D01*
X127655901Y-102896825D01*
X127803110Y-102941476D01*
X128033000Y-102820155D01*
X128033000Y-101627000D01*
X128287000Y-101627000D01*
X128287000Y-102820155D01*
X128516890Y-102941476D01*
X128664099Y-102896825D01*
X128926920Y-102771641D01*
X129160269Y-102597588D01*
X129355178Y-102381355D01*
X129504157Y-102131252D01*
X129601481Y-101856891D01*
X129480814Y-101627000D01*
X128287000Y-101627000D01*
X128033000Y-101627000D01*
X128013000Y-101627000D01*
X128013000Y-101373000D01*
X128033000Y-101373000D01*
X128033000Y-100179845D01*
X128287000Y-100179845D01*
X128287000Y-101373000D01*
X129480814Y-101373000D01*
X129601481Y-101143109D01*
X129504157Y-100868748D01*
X129355178Y-100618645D01*
X129160269Y-100402412D01*
X128926920Y-100228359D01*
X128664099Y-100103175D01*
X128516890Y-100058524D01*
X128287000Y-100179845D01*
X128033000Y-100179845D01*
X127803110Y-100058524D01*
X127655901Y-100103175D01*
X127393080Y-100228359D01*
X127159731Y-100402412D01*
X127083966Y-100486466D01*
X127059502Y-100405820D01*
X127000537Y-100295506D01*
X126921185Y-100198815D01*
X126824494Y-100119463D01*
X126714180Y-100060498D01*
X126594482Y-100024188D01*
X126470000Y-100011928D01*
X124770000Y-100011928D01*
X124645518Y-100024188D01*
X124525820Y-100060498D01*
X124415506Y-100119463D01*
X124318815Y-100198815D01*
X124239463Y-100295506D01*
X124180498Y-100405820D01*
X124144188Y-100525518D01*
X124131928Y-100650000D01*
X123990000Y-100650000D01*
X123990000Y-98084801D01*
X124151156Y-97923645D01*
X124258514Y-97945000D01*
X124521486Y-97945000D01*
X124779405Y-97893696D01*
X125022359Y-97793061D01*
X125241013Y-97646962D01*
X125426962Y-97461013D01*
X125573061Y-97242359D01*
X125673696Y-96999405D01*
X125725000Y-96741486D01*
X125725000Y-96478514D01*
X128135000Y-96478514D01*
X128135000Y-96741486D01*
X128186304Y-96999405D01*
X128286939Y-97242359D01*
X128433038Y-97461013D01*
X128618987Y-97646962D01*
X128837641Y-97793061D01*
X129080595Y-97893696D01*
X129338514Y-97945000D01*
X129601486Y-97945000D01*
X129859405Y-97893696D01*
X130102359Y-97793061D01*
X130321013Y-97646962D01*
X130487975Y-97480000D01*
X132501928Y-97480000D01*
X132501928Y-99080000D01*
X132514188Y-99204482D01*
X132550498Y-99324180D01*
X132609463Y-99434494D01*
X132688815Y-99531185D01*
X132785506Y-99610537D01*
X132895820Y-99669502D01*
X133015518Y-99705812D01*
X133140000Y-99718072D01*
X134740000Y-99718072D01*
X134864482Y-99705812D01*
X134984180Y-99669502D01*
X135094494Y-99610537D01*
X135191185Y-99531185D01*
X135270537Y-99434494D01*
X135329502Y-99324180D01*
X135365812Y-99204482D01*
X135368370Y-99178509D01*
X135416481Y-99243414D01*
X135624869Y-99432385D01*
X135866119Y-99577070D01*
X136130960Y-99671909D01*
X136353000Y-99550624D01*
X136353000Y-98407000D01*
X136607000Y-98407000D01*
X136607000Y-99550624D01*
X136829040Y-99671909D01*
X137093881Y-99577070D01*
X137335131Y-99432385D01*
X137543519Y-99243414D01*
X137711037Y-99017420D01*
X137831246Y-98763087D01*
X137871904Y-98629039D01*
X137749915Y-98407000D01*
X136607000Y-98407000D01*
X136353000Y-98407000D01*
X136333000Y-98407000D01*
X136333000Y-98153000D01*
X136353000Y-98153000D01*
X136353000Y-97009376D01*
X136607000Y-97009376D01*
X136607000Y-98153000D01*
X137749915Y-98153000D01*
X137871904Y-97930961D01*
X137831246Y-97796913D01*
X137711037Y-97542580D01*
X137543519Y-97316586D01*
X137335131Y-97127615D01*
X137093881Y-96982930D01*
X136829040Y-96888091D01*
X136607000Y-97009376D01*
X136353000Y-97009376D01*
X136130960Y-96888091D01*
X135866119Y-96982930D01*
X135624869Y-97127615D01*
X135416481Y-97316586D01*
X135368370Y-97381491D01*
X135365812Y-97355518D01*
X135329502Y-97235820D01*
X135270537Y-97125506D01*
X135191185Y-97028815D01*
X135094494Y-96949463D01*
X134984180Y-96890498D01*
X134864482Y-96854188D01*
X134740000Y-96841928D01*
X133140000Y-96841928D01*
X133015518Y-96854188D01*
X132895820Y-96890498D01*
X132785506Y-96949463D01*
X132688815Y-97028815D01*
X132609463Y-97125506D01*
X132550498Y-97235820D01*
X132514188Y-97355518D01*
X132501928Y-97480000D01*
X130487975Y-97480000D01*
X130506962Y-97461013D01*
X130653061Y-97242359D01*
X130753696Y-96999405D01*
X130805000Y-96741486D01*
X130805000Y-96478514D01*
X130753696Y-96220595D01*
X130653061Y-95977641D01*
X130506962Y-95758987D01*
X130321013Y-95573038D01*
X130102359Y-95426939D01*
X129859405Y-95326304D01*
X129601486Y-95275000D01*
X129338514Y-95275000D01*
X129080595Y-95326304D01*
X128837641Y-95426939D01*
X128618987Y-95573038D01*
X128433038Y-95758987D01*
X128286939Y-95977641D01*
X128186304Y-96220595D01*
X128135000Y-96478514D01*
X125725000Y-96478514D01*
X125673696Y-96220595D01*
X125573061Y-95977641D01*
X125426962Y-95758987D01*
X125241013Y-95573038D01*
X125022359Y-95426939D01*
X124909038Y-95380000D01*
X128062678Y-95380000D01*
X128100000Y-95383676D01*
X128137322Y-95380000D01*
X128137333Y-95380000D01*
X128248986Y-95369003D01*
X128392247Y-95325546D01*
X128524276Y-95254974D01*
X128640001Y-95160001D01*
X128663804Y-95130998D01*
X128991156Y-94803645D01*
X129098514Y-94825000D01*
X129361486Y-94825000D01*
X129619405Y-94773696D01*
X129862359Y-94673061D01*
X130081013Y-94526962D01*
X130266962Y-94341013D01*
X130413061Y-94122359D01*
X130513696Y-93879405D01*
X130565000Y-93621486D01*
X130565000Y-93358514D01*
X130513696Y-93100595D01*
X130413061Y-92857641D01*
X130266962Y-92638987D01*
X130081013Y-92453038D01*
X129862359Y-92306939D01*
X129619405Y-92206304D01*
X129361486Y-92155000D01*
X129098514Y-92155000D01*
X128840595Y-92206304D01*
X128597641Y-92306939D01*
X128378987Y-92453038D01*
X128193038Y-92638987D01*
X128046939Y-92857641D01*
X127946304Y-93100595D01*
X127895000Y-93358514D01*
X127895000Y-93621486D01*
X127916355Y-93728844D01*
X127785199Y-93860000D01*
X125437556Y-93860000D01*
X125485000Y-93621486D01*
X125485000Y-93358514D01*
X125433696Y-93100595D01*
X125333061Y-92857641D01*
X125186962Y-92638987D01*
X125001013Y-92453038D01*
X124782359Y-92306939D01*
X124539405Y-92206304D01*
X124281486Y-92155000D01*
X124018514Y-92155000D01*
X123760595Y-92206304D01*
X123517641Y-92306939D01*
X123298987Y-92453038D01*
X123113038Y-92638987D01*
X122966939Y-92857641D01*
X122866304Y-93100595D01*
X122815000Y-93358514D01*
X122815000Y-93621486D01*
X122862444Y-93860000D01*
X121099395Y-93860000D01*
X121188697Y-93644406D01*
X121240001Y-93386487D01*
X121240001Y-93123515D01*
X121188697Y-92865596D01*
X121088062Y-92622642D01*
X120941963Y-92403988D01*
X120756014Y-92218039D01*
X120665001Y-92157226D01*
X120665001Y-92022323D01*
X120668677Y-91985000D01*
X120665001Y-91947677D01*
X120665001Y-91947668D01*
X120654004Y-91836015D01*
X120610547Y-91692754D01*
X120539975Y-91560725D01*
X120445002Y-91445000D01*
X120415999Y-91421198D01*
X120116081Y-91121280D01*
X122223327Y-91121280D01*
X122288730Y-91360046D01*
X122535539Y-91475846D01*
X122800196Y-91541271D01*
X123072532Y-91553806D01*
X123342082Y-91512971D01*
X123598485Y-91420333D01*
X123711272Y-91360046D01*
X123776675Y-91121280D01*
X123000001Y-90344606D01*
X122223327Y-91121280D01*
X120116081Y-91121280D01*
X120113804Y-91119003D01*
X120090001Y-91089999D01*
X119974276Y-90995026D01*
X119842247Y-90924454D01*
X119698986Y-90880997D01*
X119587333Y-90870000D01*
X119587322Y-90870000D01*
X119550000Y-90866324D01*
X119512678Y-90870000D01*
X117693459Y-90870000D01*
X117726486Y-90820571D01*
X117830815Y-90568699D01*
X117884001Y-90301313D01*
X117884001Y-90237532D01*
X121611196Y-90237532D01*
X121652031Y-90507082D01*
X121744669Y-90763485D01*
X121804956Y-90876272D01*
X122043722Y-90941675D01*
X122820396Y-90165001D01*
X123179606Y-90165001D01*
X123956280Y-90941675D01*
X124195046Y-90876272D01*
X124310846Y-90629463D01*
X124376271Y-90364806D01*
X124388806Y-90092470D01*
X124347971Y-89822920D01*
X124255333Y-89566517D01*
X124195046Y-89453730D01*
X123956280Y-89388327D01*
X123179606Y-90165001D01*
X122820396Y-90165001D01*
X122043722Y-89388327D01*
X121804956Y-89453730D01*
X121689156Y-89700539D01*
X121623731Y-89965196D01*
X121611196Y-90237532D01*
X117884001Y-90237532D01*
X117884001Y-90028689D01*
X117830815Y-89761303D01*
X117726486Y-89509431D01*
X117575024Y-89282752D01*
X117500994Y-89208722D01*
X122223327Y-89208722D01*
X123000001Y-89985396D01*
X123776675Y-89208722D01*
X123711272Y-88969956D01*
X123464463Y-88854156D01*
X123199806Y-88788731D01*
X122927470Y-88776196D01*
X122657920Y-88817031D01*
X122401517Y-88909669D01*
X122288730Y-88969956D01*
X122223327Y-89208722D01*
X117500994Y-89208722D01*
X117382250Y-89089978D01*
X117260001Y-89008294D01*
X117260001Y-87050990D01*
X117373483Y-87039813D01*
X117493181Y-87003503D01*
X117603495Y-86944538D01*
X117700186Y-86865186D01*
X117779538Y-86768495D01*
X117838503Y-86658181D01*
X117849696Y-86621280D01*
X122223327Y-86621280D01*
X122288730Y-86860046D01*
X122535539Y-86975846D01*
X122800196Y-87041271D01*
X123072532Y-87053806D01*
X123342082Y-87012971D01*
X123598485Y-86920333D01*
X123711272Y-86860046D01*
X123776675Y-86621280D01*
X123000001Y-85844606D01*
X122223327Y-86621280D01*
X117849696Y-86621280D01*
X117874813Y-86538483D01*
X117887073Y-86414001D01*
X117887073Y-85737532D01*
X121611196Y-85737532D01*
X121652031Y-86007082D01*
X121744669Y-86263485D01*
X121804956Y-86376272D01*
X122043722Y-86441675D01*
X122820396Y-85665001D01*
X123179606Y-85665001D01*
X123956280Y-86441675D01*
X124195046Y-86376272D01*
X124310846Y-86129463D01*
X124376271Y-85864806D01*
X124388806Y-85592470D01*
X124347971Y-85322920D01*
X124255333Y-85066517D01*
X124195046Y-84953730D01*
X123956280Y-84888327D01*
X123179606Y-85665001D01*
X122820396Y-85665001D01*
X122043722Y-84888327D01*
X121804956Y-84953730D01*
X121689156Y-85200539D01*
X121623731Y-85465196D01*
X121611196Y-85737532D01*
X117887073Y-85737532D01*
X117887073Y-84916001D01*
X117874813Y-84791519D01*
X117838503Y-84671821D01*
X117779538Y-84561507D01*
X117700186Y-84464816D01*
X117693102Y-84459002D01*
X122309223Y-84459002D01*
X122288730Y-84469956D01*
X122223327Y-84708722D01*
X123000001Y-85485396D01*
X123776675Y-84708722D01*
X123711272Y-84469956D01*
X123687925Y-84459002D01*
X125726900Y-84459002D01*
X125719816Y-84464816D01*
X125640464Y-84561507D01*
X125581499Y-84671821D01*
X125545189Y-84791519D01*
X125532929Y-84916001D01*
X125532929Y-86414001D01*
X125545189Y-86538483D01*
X125581499Y-86658181D01*
X125640464Y-86768495D01*
X125719816Y-86865186D01*
X125816507Y-86944538D01*
X125926821Y-87003503D01*
X126046519Y-87039813D01*
X126160002Y-87050990D01*
X126160001Y-89008294D01*
X126037752Y-89089978D01*
X125844978Y-89282752D01*
X125693516Y-89509431D01*
X125589187Y-89761303D01*
X125536001Y-90028689D01*
X125536001Y-90301313D01*
X125589187Y-90568699D01*
X125693516Y-90820571D01*
X125844978Y-91047250D01*
X126037752Y-91240024D01*
X126264431Y-91391486D01*
X126516303Y-91495815D01*
X126783689Y-91549001D01*
X127056313Y-91549001D01*
X127323699Y-91495815D01*
X127575571Y-91391486D01*
X127802250Y-91240024D01*
X127995024Y-91047250D01*
X128146486Y-90820571D01*
X128250815Y-90568699D01*
X128304001Y-90301313D01*
X128304001Y-90028689D01*
X128250815Y-89761303D01*
X128146486Y-89509431D01*
X127995024Y-89282752D01*
X127802250Y-89089978D01*
X127680001Y-89008294D01*
X127680001Y-87050990D01*
X127793483Y-87039813D01*
X127913181Y-87003503D01*
X128023495Y-86944538D01*
X128120186Y-86865186D01*
X128199538Y-86768495D01*
X128258503Y-86658181D01*
X128294813Y-86538483D01*
X128307073Y-86414001D01*
X128307073Y-84916001D01*
X128294813Y-84791519D01*
X128258503Y-84671821D01*
X128199538Y-84561507D01*
X128120186Y-84464816D01*
X128113102Y-84459002D01*
X132344201Y-84459002D01*
X132506464Y-84621266D01*
X132344978Y-84782752D01*
X132193516Y-85009431D01*
X132089187Y-85261303D01*
X132036001Y-85528689D01*
X132036001Y-85801313D01*
X132089187Y-86068699D01*
X132193516Y-86320571D01*
X132344978Y-86547250D01*
X132537752Y-86740024D01*
X132660002Y-86821709D01*
X132660001Y-89008294D01*
X132537752Y-89089978D01*
X132344978Y-89282752D01*
X132193516Y-89509431D01*
X132089187Y-89761303D01*
X132036001Y-90028689D01*
X132036001Y-90301313D01*
X132089187Y-90568699D01*
X132193516Y-90820571D01*
X132344978Y-91047250D01*
X132537752Y-91240024D01*
X132764431Y-91391486D01*
X133016303Y-91495815D01*
X133283689Y-91549001D01*
X133556313Y-91549001D01*
X133823699Y-91495815D01*
X134075571Y-91391486D01*
X134302250Y-91240024D01*
X134495024Y-91047250D01*
X134646486Y-90820571D01*
X134750815Y-90568699D01*
X134804001Y-90301313D01*
X134804001Y-90028689D01*
X134750815Y-89761303D01*
X134654870Y-89529671D01*
X134941201Y-89816003D01*
X134965000Y-89845002D01*
X134993998Y-89868800D01*
X135080724Y-89939975D01*
X135127909Y-89965196D01*
X135212754Y-90010547D01*
X135356015Y-90054004D01*
X135467668Y-90065001D01*
X135467677Y-90065001D01*
X135505000Y-90068677D01*
X135542323Y-90065001D01*
X135762914Y-90065001D01*
X135774189Y-90179483D01*
X135810499Y-90299181D01*
X135869464Y-90409495D01*
X135948816Y-90506186D01*
X136045507Y-90585538D01*
X136155821Y-90644503D01*
X136275519Y-90680813D01*
X136400001Y-90693073D01*
X137450001Y-90693073D01*
X137574483Y-90680813D01*
X137694181Y-90644503D01*
X137758903Y-90609908D01*
X137967602Y-90673216D01*
X138195001Y-90695613D01*
X138422401Y-90673216D01*
X138641061Y-90606886D01*
X138829670Y-90506072D01*
X138888119Y-90547276D01*
X139097664Y-90640273D01*
X139159191Y-90648965D01*
X139338001Y-90523164D01*
X139338001Y-89758109D01*
X139338216Y-89757400D01*
X139355001Y-89586979D01*
X139355001Y-89023022D01*
X139338216Y-88852601D01*
X139338001Y-88851892D01*
X139338001Y-88086838D01*
X139159191Y-87961037D01*
X139097664Y-87969729D01*
X138955001Y-88033043D01*
X138955001Y-87312323D01*
X138958677Y-87275000D01*
X138955001Y-87237677D01*
X138955001Y-87237668D01*
X138944004Y-87126015D01*
X138900547Y-86982754D01*
X138829975Y-86850725D01*
X138735002Y-86735000D01*
X138705999Y-86711198D01*
X138473804Y-86479003D01*
X138450001Y-86449999D01*
X138334276Y-86355026D01*
X138202247Y-86284454D01*
X138058986Y-86240997D01*
X137947333Y-86230000D01*
X137947322Y-86230000D01*
X137910000Y-86226324D01*
X137872678Y-86230000D01*
X136140000Y-86230000D01*
X136140000Y-84704455D01*
X136210595Y-84733696D01*
X136468514Y-84785000D01*
X136731486Y-84785000D01*
X136989405Y-84733696D01*
X137232359Y-84633061D01*
X137451013Y-84486962D01*
X137636962Y-84301013D01*
X137783061Y-84082359D01*
X137883696Y-83839405D01*
X137935000Y-83581486D01*
X137935000Y-83318514D01*
X137883696Y-83060595D01*
X137783061Y-82817641D01*
X137704595Y-82700207D01*
X137749801Y-82655001D01*
X140605611Y-82655001D01*
X140496939Y-82817641D01*
%TA.AperFunction,Conductor*%
D31*
G36*
X140496939Y-82817641D02*
G01*
X140396304Y-83060595D01*
X140345000Y-83318514D01*
X140345000Y-83581486D01*
X140368099Y-83697610D01*
X140345027Y-83725723D01*
X140308290Y-83794453D01*
X140274455Y-83857753D01*
X140230998Y-84001014D01*
X140220001Y-84112667D01*
X140220001Y-84112677D01*
X140216325Y-84149999D01*
X140220001Y-84187321D01*
X140220001Y-88188291D01*
X140041883Y-88062726D01*
X139832338Y-87969729D01*
X139770811Y-87961037D01*
X139592001Y-88086838D01*
X139592001Y-89178001D01*
X139612001Y-89178001D01*
X139612001Y-89432001D01*
X139592001Y-89432001D01*
X139592001Y-90523164D01*
X139770811Y-90648965D01*
X139832338Y-90640273D01*
X140041883Y-90547276D01*
X140220001Y-90421711D01*
X140220002Y-101145196D01*
X139805199Y-101560000D01*
X138564709Y-101560000D01*
X138649992Y-101490010D01*
X138673794Y-101461007D01*
X139291004Y-100843798D01*
X139320001Y-100820001D01*
X139414974Y-100704276D01*
X139485546Y-100572247D01*
X139529003Y-100428986D01*
X139540000Y-100317333D01*
X139540000Y-100317323D01*
X139543676Y-100280000D01*
X139540000Y-100242677D01*
X139540000Y-93307323D01*
X139543676Y-93270000D01*
X139540000Y-93232677D01*
X139540000Y-93232667D01*
X139529003Y-93121014D01*
X139485546Y-92977753D01*
X139414974Y-92845724D01*
X139320001Y-92729999D01*
X139291003Y-92706201D01*
X137883804Y-91299003D01*
X137860001Y-91269999D01*
X137744276Y-91175026D01*
X137612247Y-91104454D01*
X137468986Y-91060997D01*
X137357333Y-91050000D01*
X137357322Y-91050000D01*
X137320000Y-91046324D01*
X137282678Y-91050000D01*
X134857322Y-91050000D01*
X134819999Y-91046324D01*
X134782676Y-91050000D01*
X134782667Y-91050000D01*
X134671014Y-91060997D01*
X134548792Y-91098072D01*
X134527753Y-91104454D01*
X134395723Y-91175026D01*
X134334829Y-91225001D01*
X134279999Y-91269999D01*
X134256201Y-91298998D01*
X133569002Y-91986197D01*
X133539999Y-92009999D01*
X133490766Y-92069990D01*
X133445026Y-92125724D01*
X133387003Y-92234276D01*
X133374454Y-92257754D01*
X133330997Y-92401015D01*
X133320000Y-92512668D01*
X133320000Y-92512678D01*
X133316324Y-92550000D01*
X133320000Y-92587323D01*
X133320000Y-93041928D01*
X133180000Y-93041928D01*
X133055518Y-93054188D01*
X132935820Y-93090498D01*
X132825506Y-93149463D01*
X132728815Y-93228815D01*
X132649463Y-93325506D01*
X132590498Y-93435820D01*
X132554188Y-93555518D01*
X132541928Y-93680000D01*
X132541928Y-95480000D01*
X132554188Y-95604482D01*
X132590498Y-95724180D01*
X132649463Y-95834494D01*
X132728815Y-95931185D01*
X132825506Y-96010537D01*
X132935820Y-96069502D01*
X133055518Y-96105812D01*
X133180000Y-96118072D01*
X134980000Y-96118072D01*
X135104482Y-96105812D01*
X135224180Y-96069502D01*
X135334494Y-96010537D01*
X135431185Y-95931185D01*
X135510537Y-95834494D01*
X135569502Y-95724180D01*
X135575056Y-95705873D01*
X135641495Y-95772312D01*
X135892905Y-95940299D01*
X136172257Y-96056011D01*
X136468816Y-96115000D01*
X136771184Y-96115000D01*
X137067743Y-96056011D01*
X137347095Y-95940299D01*
X137598505Y-95772312D01*
X137812312Y-95558505D01*
X137980299Y-95307095D01*
X138020001Y-95211247D01*
X138020000Y-99965198D01*
X137795190Y-100190009D01*
X135497314Y-100190009D01*
X135459991Y-100186333D01*
X135422668Y-100190009D01*
X135422658Y-100190009D01*
X135311005Y-100201006D01*
X135167744Y-100244463D01*
X135035715Y-100315035D01*
X134919990Y-100410008D01*
X134896192Y-100439006D01*
X134553270Y-100781928D01*
X133190000Y-100781928D01*
X133065518Y-100794188D01*
X132945820Y-100830498D01*
X132835506Y-100889463D01*
X132738815Y-100968815D01*
X132659463Y-101065506D01*
X132600498Y-101175820D01*
X132564188Y-101295518D01*
X132551928Y-101420000D01*
X132551928Y-103220000D01*
X132564188Y-103344482D01*
X132596197Y-103450000D01*
X124234802Y-103450000D01*
X123990000Y-103205199D01*
X123990000Y-100650000D01*
X124131928Y-100650000D01*
X124131928Y-102350000D01*
X124144188Y-102474482D01*
X124180498Y-102594180D01*
X124239463Y-102704494D01*
X124318815Y-102801185D01*
X124415506Y-102880537D01*
X124525820Y-102939502D01*
X124645518Y-102975812D01*
X124770000Y-102988072D01*
X126470000Y-102988072D01*
X126594482Y-102975812D01*
X126714180Y-102939502D01*
X126824494Y-102880537D01*
X126921185Y-102801185D01*
X127000537Y-102704494D01*
X127059502Y-102594180D01*
X127083966Y-102513534D01*
X127159731Y-102597588D01*
X127393080Y-102771641D01*
X127655901Y-102896825D01*
X127803110Y-102941476D01*
X128033000Y-102820155D01*
X128033000Y-101627000D01*
X128287000Y-101627000D01*
X128287000Y-102820155D01*
X128516890Y-102941476D01*
X128664099Y-102896825D01*
X128926920Y-102771641D01*
X129160269Y-102597588D01*
X129355178Y-102381355D01*
X129504157Y-102131252D01*
X129601481Y-101856891D01*
X129480814Y-101627000D01*
X128287000Y-101627000D01*
X128033000Y-101627000D01*
X128013000Y-101627000D01*
X128013000Y-101373000D01*
X128033000Y-101373000D01*
X128033000Y-100179845D01*
X128287000Y-100179845D01*
X128287000Y-101373000D01*
X129480814Y-101373000D01*
X129601481Y-101143109D01*
X129504157Y-100868748D01*
X129355178Y-100618645D01*
X129160269Y-100402412D01*
X128926920Y-100228359D01*
X128664099Y-100103175D01*
X128516890Y-100058524D01*
X128287000Y-100179845D01*
X128033000Y-100179845D01*
X127803110Y-100058524D01*
X127655901Y-100103175D01*
X127393080Y-100228359D01*
X127159731Y-100402412D01*
X127083966Y-100486466D01*
X127059502Y-100405820D01*
X127000537Y-100295506D01*
X126921185Y-100198815D01*
X126824494Y-100119463D01*
X126714180Y-100060498D01*
X126594482Y-100024188D01*
X126470000Y-100011928D01*
X124770000Y-100011928D01*
X124645518Y-100024188D01*
X124525820Y-100060498D01*
X124415506Y-100119463D01*
X124318815Y-100198815D01*
X124239463Y-100295506D01*
X124180498Y-100405820D01*
X124144188Y-100525518D01*
X124131928Y-100650000D01*
X123990000Y-100650000D01*
X123990000Y-98084801D01*
X124151156Y-97923645D01*
X124258514Y-97945000D01*
X124521486Y-97945000D01*
X124779405Y-97893696D01*
X125022359Y-97793061D01*
X125241013Y-97646962D01*
X125426962Y-97461013D01*
X125573061Y-97242359D01*
X125673696Y-96999405D01*
X125725000Y-96741486D01*
X125725000Y-96478514D01*
X128135000Y-96478514D01*
X128135000Y-96741486D01*
X128186304Y-96999405D01*
X128286939Y-97242359D01*
X128433038Y-97461013D01*
X128618987Y-97646962D01*
X128837641Y-97793061D01*
X129080595Y-97893696D01*
X129338514Y-97945000D01*
X129601486Y-97945000D01*
X129859405Y-97893696D01*
X130102359Y-97793061D01*
X130321013Y-97646962D01*
X130487975Y-97480000D01*
X132501928Y-97480000D01*
X132501928Y-99080000D01*
X132514188Y-99204482D01*
X132550498Y-99324180D01*
X132609463Y-99434494D01*
X132688815Y-99531185D01*
X132785506Y-99610537D01*
X132895820Y-99669502D01*
X133015518Y-99705812D01*
X133140000Y-99718072D01*
X134740000Y-99718072D01*
X134864482Y-99705812D01*
X134984180Y-99669502D01*
X135094494Y-99610537D01*
X135191185Y-99531185D01*
X135270537Y-99434494D01*
X135329502Y-99324180D01*
X135365812Y-99204482D01*
X135368370Y-99178509D01*
X135416481Y-99243414D01*
X135624869Y-99432385D01*
X135866119Y-99577070D01*
X136130960Y-99671909D01*
X136353000Y-99550624D01*
X136353000Y-98407000D01*
X136607000Y-98407000D01*
X136607000Y-99550624D01*
X136829040Y-99671909D01*
X137093881Y-99577070D01*
X137335131Y-99432385D01*
X137543519Y-99243414D01*
X137711037Y-99017420D01*
X137831246Y-98763087D01*
X137871904Y-98629039D01*
X137749915Y-98407000D01*
X136607000Y-98407000D01*
X136353000Y-98407000D01*
X136333000Y-98407000D01*
X136333000Y-98153000D01*
X136353000Y-98153000D01*
X136353000Y-97009376D01*
X136607000Y-97009376D01*
X136607000Y-98153000D01*
X137749915Y-98153000D01*
X137871904Y-97930961D01*
X137831246Y-97796913D01*
X137711037Y-97542580D01*
X137543519Y-97316586D01*
X137335131Y-97127615D01*
X137093881Y-96982930D01*
X136829040Y-96888091D01*
X136607000Y-97009376D01*
X136353000Y-97009376D01*
X136130960Y-96888091D01*
X135866119Y-96982930D01*
X135624869Y-97127615D01*
X135416481Y-97316586D01*
X135368370Y-97381491D01*
X135365812Y-97355518D01*
X135329502Y-97235820D01*
X135270537Y-97125506D01*
X135191185Y-97028815D01*
X135094494Y-96949463D01*
X134984180Y-96890498D01*
X134864482Y-96854188D01*
X134740000Y-96841928D01*
X133140000Y-96841928D01*
X133015518Y-96854188D01*
X132895820Y-96890498D01*
X132785506Y-96949463D01*
X132688815Y-97028815D01*
X132609463Y-97125506D01*
X132550498Y-97235820D01*
X132514188Y-97355518D01*
X132501928Y-97480000D01*
X130487975Y-97480000D01*
X130506962Y-97461013D01*
X130653061Y-97242359D01*
X130753696Y-96999405D01*
X130805000Y-96741486D01*
X130805000Y-96478514D01*
X130753696Y-96220595D01*
X130653061Y-95977641D01*
X130506962Y-95758987D01*
X130321013Y-95573038D01*
X130102359Y-95426939D01*
X129859405Y-95326304D01*
X129601486Y-95275000D01*
X129338514Y-95275000D01*
X129080595Y-95326304D01*
X128837641Y-95426939D01*
X128618987Y-95573038D01*
X128433038Y-95758987D01*
X128286939Y-95977641D01*
X128186304Y-96220595D01*
X128135000Y-96478514D01*
X125725000Y-96478514D01*
X125673696Y-96220595D01*
X125573061Y-95977641D01*
X125426962Y-95758987D01*
X125241013Y-95573038D01*
X125022359Y-95426939D01*
X124909038Y-95380000D01*
X128062678Y-95380000D01*
X128100000Y-95383676D01*
X128137322Y-95380000D01*
X128137333Y-95380000D01*
X128248986Y-95369003D01*
X128392247Y-95325546D01*
X128524276Y-95254974D01*
X128640001Y-95160001D01*
X128663804Y-95130998D01*
X128991156Y-94803645D01*
X129098514Y-94825000D01*
X129361486Y-94825000D01*
X129619405Y-94773696D01*
X129862359Y-94673061D01*
X130081013Y-94526962D01*
X130266962Y-94341013D01*
X130413061Y-94122359D01*
X130513696Y-93879405D01*
X130565000Y-93621486D01*
X130565000Y-93358514D01*
X130513696Y-93100595D01*
X130413061Y-92857641D01*
X130266962Y-92638987D01*
X130081013Y-92453038D01*
X129862359Y-92306939D01*
X129619405Y-92206304D01*
X129361486Y-92155000D01*
X129098514Y-92155000D01*
X128840595Y-92206304D01*
X128597641Y-92306939D01*
X128378987Y-92453038D01*
X128193038Y-92638987D01*
X128046939Y-92857641D01*
X127946304Y-93100595D01*
X127895000Y-93358514D01*
X127895000Y-93621486D01*
X127916355Y-93728844D01*
X127785199Y-93860000D01*
X125437556Y-93860000D01*
X125485000Y-93621486D01*
X125485000Y-93358514D01*
X125433696Y-93100595D01*
X125333061Y-92857641D01*
X125186962Y-92638987D01*
X125001013Y-92453038D01*
X124782359Y-92306939D01*
X124539405Y-92206304D01*
X124281486Y-92155000D01*
X124018514Y-92155000D01*
X123760595Y-92206304D01*
X123517641Y-92306939D01*
X123298987Y-92453038D01*
X123113038Y-92638987D01*
X122966939Y-92857641D01*
X122866304Y-93100595D01*
X122815000Y-93358514D01*
X122815000Y-93621486D01*
X122862444Y-93860000D01*
X121099395Y-93860000D01*
X121188697Y-93644406D01*
X121240001Y-93386487D01*
X121240001Y-93123515D01*
X121188697Y-92865596D01*
X121088062Y-92622642D01*
X120941963Y-92403988D01*
X120756014Y-92218039D01*
X120665001Y-92157226D01*
X120665001Y-92022323D01*
X120668677Y-91985000D01*
X120665001Y-91947677D01*
X120665001Y-91947668D01*
X120654004Y-91836015D01*
X120610547Y-91692754D01*
X120539975Y-91560725D01*
X120445002Y-91445000D01*
X120415999Y-91421198D01*
X120116081Y-91121280D01*
X122223327Y-91121280D01*
X122288730Y-91360046D01*
X122535539Y-91475846D01*
X122800196Y-91541271D01*
X123072532Y-91553806D01*
X123342082Y-91512971D01*
X123598485Y-91420333D01*
X123711272Y-91360046D01*
X123776675Y-91121280D01*
X123000001Y-90344606D01*
X122223327Y-91121280D01*
X120116081Y-91121280D01*
X120113804Y-91119003D01*
X120090001Y-91089999D01*
X119974276Y-90995026D01*
X119842247Y-90924454D01*
X119698986Y-90880997D01*
X119587333Y-90870000D01*
X119587322Y-90870000D01*
X119550000Y-90866324D01*
X119512678Y-90870000D01*
X117693459Y-90870000D01*
X117726486Y-90820571D01*
X117830815Y-90568699D01*
X117884001Y-90301313D01*
X117884001Y-90237532D01*
X121611196Y-90237532D01*
X121652031Y-90507082D01*
X121744669Y-90763485D01*
X121804956Y-90876272D01*
X122043722Y-90941675D01*
X122820396Y-90165001D01*
X123179606Y-90165001D01*
X123956280Y-90941675D01*
X124195046Y-90876272D01*
X124310846Y-90629463D01*
X124376271Y-90364806D01*
X124388806Y-90092470D01*
X124347971Y-89822920D01*
X124255333Y-89566517D01*
X124195046Y-89453730D01*
X123956280Y-89388327D01*
X123179606Y-90165001D01*
X122820396Y-90165001D01*
X122043722Y-89388327D01*
X121804956Y-89453730D01*
X121689156Y-89700539D01*
X121623731Y-89965196D01*
X121611196Y-90237532D01*
X117884001Y-90237532D01*
X117884001Y-90028689D01*
X117830815Y-89761303D01*
X117726486Y-89509431D01*
X117575024Y-89282752D01*
X117500994Y-89208722D01*
X122223327Y-89208722D01*
X123000001Y-89985396D01*
X123776675Y-89208722D01*
X123711272Y-88969956D01*
X123464463Y-88854156D01*
X123199806Y-88788731D01*
X122927470Y-88776196D01*
X122657920Y-88817031D01*
X122401517Y-88909669D01*
X122288730Y-88969956D01*
X122223327Y-89208722D01*
X117500994Y-89208722D01*
X117382250Y-89089978D01*
X117260001Y-89008294D01*
X117260001Y-87050990D01*
X117373483Y-87039813D01*
X117493181Y-87003503D01*
X117603495Y-86944538D01*
X117700186Y-86865186D01*
X117779538Y-86768495D01*
X117838503Y-86658181D01*
X117849696Y-86621280D01*
X122223327Y-86621280D01*
X122288730Y-86860046D01*
X122535539Y-86975846D01*
X122800196Y-87041271D01*
X123072532Y-87053806D01*
X123342082Y-87012971D01*
X123598485Y-86920333D01*
X123711272Y-86860046D01*
X123776675Y-86621280D01*
X123000001Y-85844606D01*
X122223327Y-86621280D01*
X117849696Y-86621280D01*
X117874813Y-86538483D01*
X117887073Y-86414001D01*
X117887073Y-85737532D01*
X121611196Y-85737532D01*
X121652031Y-86007082D01*
X121744669Y-86263485D01*
X121804956Y-86376272D01*
X122043722Y-86441675D01*
X122820396Y-85665001D01*
X123179606Y-85665001D01*
X123956280Y-86441675D01*
X124195046Y-86376272D01*
X124310846Y-86129463D01*
X124376271Y-85864806D01*
X124388806Y-85592470D01*
X124347971Y-85322920D01*
X124255333Y-85066517D01*
X124195046Y-84953730D01*
X123956280Y-84888327D01*
X123179606Y-85665001D01*
X122820396Y-85665001D01*
X122043722Y-84888327D01*
X121804956Y-84953730D01*
X121689156Y-85200539D01*
X121623731Y-85465196D01*
X121611196Y-85737532D01*
X117887073Y-85737532D01*
X117887073Y-84916001D01*
X117874813Y-84791519D01*
X117838503Y-84671821D01*
X117779538Y-84561507D01*
X117700186Y-84464816D01*
X117693102Y-84459002D01*
X122309223Y-84459002D01*
X122288730Y-84469956D01*
X122223327Y-84708722D01*
X123000001Y-85485396D01*
X123776675Y-84708722D01*
X123711272Y-84469956D01*
X123687925Y-84459002D01*
X125726900Y-84459002D01*
X125719816Y-84464816D01*
X125640464Y-84561507D01*
X125581499Y-84671821D01*
X125545189Y-84791519D01*
X125532929Y-84916001D01*
X125532929Y-86414001D01*
X125545189Y-86538483D01*
X125581499Y-86658181D01*
X125640464Y-86768495D01*
X125719816Y-86865186D01*
X125816507Y-86944538D01*
X125926821Y-87003503D01*
X126046519Y-87039813D01*
X126160002Y-87050990D01*
X126160001Y-89008294D01*
X126037752Y-89089978D01*
X125844978Y-89282752D01*
X125693516Y-89509431D01*
X125589187Y-89761303D01*
X125536001Y-90028689D01*
X125536001Y-90301313D01*
X125589187Y-90568699D01*
X125693516Y-90820571D01*
X125844978Y-91047250D01*
X126037752Y-91240024D01*
X126264431Y-91391486D01*
X126516303Y-91495815D01*
X126783689Y-91549001D01*
X127056313Y-91549001D01*
X127323699Y-91495815D01*
X127575571Y-91391486D01*
X127802250Y-91240024D01*
X127995024Y-91047250D01*
X128146486Y-90820571D01*
X128250815Y-90568699D01*
X128304001Y-90301313D01*
X128304001Y-90028689D01*
X128250815Y-89761303D01*
X128146486Y-89509431D01*
X127995024Y-89282752D01*
X127802250Y-89089978D01*
X127680001Y-89008294D01*
X127680001Y-87050990D01*
X127793483Y-87039813D01*
X127913181Y-87003503D01*
X128023495Y-86944538D01*
X128120186Y-86865186D01*
X128199538Y-86768495D01*
X128258503Y-86658181D01*
X128294813Y-86538483D01*
X128307073Y-86414001D01*
X128307073Y-84916001D01*
X128294813Y-84791519D01*
X128258503Y-84671821D01*
X128199538Y-84561507D01*
X128120186Y-84464816D01*
X128113102Y-84459002D01*
X132344201Y-84459002D01*
X132506464Y-84621266D01*
X132344978Y-84782752D01*
X132193516Y-85009431D01*
X132089187Y-85261303D01*
X132036001Y-85528689D01*
X132036001Y-85801313D01*
X132089187Y-86068699D01*
X132193516Y-86320571D01*
X132344978Y-86547250D01*
X132537752Y-86740024D01*
X132660002Y-86821709D01*
X132660001Y-89008294D01*
X132537752Y-89089978D01*
X132344978Y-89282752D01*
X132193516Y-89509431D01*
X132089187Y-89761303D01*
X132036001Y-90028689D01*
X132036001Y-90301313D01*
X132089187Y-90568699D01*
X132193516Y-90820571D01*
X132344978Y-91047250D01*
X132537752Y-91240024D01*
X132764431Y-91391486D01*
X133016303Y-91495815D01*
X133283689Y-91549001D01*
X133556313Y-91549001D01*
X133823699Y-91495815D01*
X134075571Y-91391486D01*
X134302250Y-91240024D01*
X134495024Y-91047250D01*
X134646486Y-90820571D01*
X134750815Y-90568699D01*
X134804001Y-90301313D01*
X134804001Y-90028689D01*
X134750815Y-89761303D01*
X134654870Y-89529671D01*
X134941201Y-89816003D01*
X134965000Y-89845002D01*
X134993998Y-89868800D01*
X135080724Y-89939975D01*
X135127909Y-89965196D01*
X135212754Y-90010547D01*
X135356015Y-90054004D01*
X135467668Y-90065001D01*
X135467677Y-90065001D01*
X135505000Y-90068677D01*
X135542323Y-90065001D01*
X135762914Y-90065001D01*
X135774189Y-90179483D01*
X135810499Y-90299181D01*
X135869464Y-90409495D01*
X135948816Y-90506186D01*
X136045507Y-90585538D01*
X136155821Y-90644503D01*
X136275519Y-90680813D01*
X136400001Y-90693073D01*
X137450001Y-90693073D01*
X137574483Y-90680813D01*
X137694181Y-90644503D01*
X137758903Y-90609908D01*
X137967602Y-90673216D01*
X138195001Y-90695613D01*
X138422401Y-90673216D01*
X138641061Y-90606886D01*
X138829670Y-90506072D01*
X138888119Y-90547276D01*
X139097664Y-90640273D01*
X139159191Y-90648965D01*
X139338001Y-90523164D01*
X139338001Y-89758109D01*
X139338216Y-89757400D01*
X139355001Y-89586979D01*
X139355001Y-89023022D01*
X139338216Y-88852601D01*
X139338001Y-88851892D01*
X139338001Y-88086838D01*
X139159191Y-87961037D01*
X139097664Y-87969729D01*
X138955001Y-88033043D01*
X138955001Y-87312323D01*
X138958677Y-87275000D01*
X138955001Y-87237677D01*
X138955001Y-87237668D01*
X138944004Y-87126015D01*
X138900547Y-86982754D01*
X138829975Y-86850725D01*
X138735002Y-86735000D01*
X138705999Y-86711198D01*
X138473804Y-86479003D01*
X138450001Y-86449999D01*
X138334276Y-86355026D01*
X138202247Y-86284454D01*
X138058986Y-86240997D01*
X137947333Y-86230000D01*
X137947322Y-86230000D01*
X137910000Y-86226324D01*
X137872678Y-86230000D01*
X136140000Y-86230000D01*
X136140000Y-84704455D01*
X136210595Y-84733696D01*
X136468514Y-84785000D01*
X136731486Y-84785000D01*
X136989405Y-84733696D01*
X137232359Y-84633061D01*
X137451013Y-84486962D01*
X137636962Y-84301013D01*
X137783061Y-84082359D01*
X137883696Y-83839405D01*
X137935000Y-83581486D01*
X137935000Y-83318514D01*
X137883696Y-83060595D01*
X137783061Y-82817641D01*
X137704595Y-82700207D01*
X137749801Y-82655001D01*
X140605611Y-82655001D01*
X140496939Y-82817641D01*
G37*
%TD.AperFunction*%
%TD*%
M02*
