M48
; DRILL file {KiCad (5.1.12)-1} date 08/23/23 15:12:07
; FORMAT={-:-/ absolute / inch / decimal}
; #@! TF.CreationDate,2023-08-23T15:12:07+05:30
; #@! TF.GenerationSoftware,Kicad,Pcbnew,(5.1.12)-1
; #@! TF.FileFunction,Plated,1,2,PTH
FMAT,2
INCH
T1C0.0236
T2C0.0276
T3C0.0295
T4C0.0315
T5C0.0354
T6C0.0390
T7C0.0394
T8C0.1339
%
G90
G05
T1
X5.6189Y-3.7354
X5.6976Y-3.7354
X5.8366Y-3.7433
X5.8382Y-3.9823
X5.9154Y-3.7433
X5.9169Y-3.9823
T2
X4.0935Y-4.003
X4.2935Y-4.003
X4.4096Y-4.003
X4.5207Y-3.6715
X4.5207Y-3.7955
X4.6096Y-4.003
X4.7207Y-3.6715
X4.7207Y-3.7955
X4.8878Y-3.6807
X4.8972Y-3.8035
X5.0878Y-3.6807
X5.0972Y-3.8035
X5.374Y-3.1839
X5.3752Y-3.0717
X5.378Y-3.2854
X5.574Y-3.1839
X5.5752Y-3.0717
X5.578Y-3.2854
T3
X5.3907Y-3.5159
X5.4407Y-3.5159
X5.4907Y-3.5159
X5.7197Y-3.3083
X5.7697Y-3.3083
X5.8197Y-3.3083
X5.9437Y-3.1063
X5.9937Y-3.1063
X6.0437Y-3.1063
T4
X4.0994Y-3.56
X4.0994Y-3.66
X4.0994Y-3.76
X4.0994Y-3.86
X4.1132Y-3.0974
X4.1132Y-3.1974
X4.1132Y-3.2974
X4.1132Y-3.3974
X4.3994Y-3.56
X4.3994Y-3.66
X4.3994Y-3.76
X4.3994Y-3.86
X4.4132Y-3.0974
X4.4132Y-3.1974
X4.4132Y-3.2974
X4.4132Y-3.3974
X5.2732Y-3.8693
X5.3732Y-3.8693
X5.611Y-3.8953
X5.6118Y-3.9965
X5.7094Y-3.8953
X5.7102Y-3.9965
T5
X5.2787Y-3.7236
X5.2791Y-4.0283
X5.3787Y-3.7236
X5.3791Y-4.0283
X5.7354Y-3.526
X5.8354Y-3.526
T6
X4.5866Y-3.0758
X4.5866Y-3.253
X4.5866Y-3.3726
X4.5866Y-3.5498
X4.8425Y-3.0758
X4.8425Y-3.253
X4.8425Y-3.3726
X4.8425Y-3.5498
X4.9969Y-3.0758
X4.9969Y-3.253
X4.9969Y-3.3726
X4.9969Y-3.5498
X5.2528Y-3.0758
X5.2528Y-3.253
X5.2528Y-3.3726
X5.2528Y-3.5498
T7
X4.9457Y-3.9961
X5.0457Y-3.9961
X5.7024Y-3.0811
X5.8024Y-3.0811
X5.9768Y-3.4039
X5.9768Y-3.5039
T8
X3.9764Y-2.8346
X3.9764Y-4.252
X6.1811Y-2.8346
X6.1811Y-4.252
T0
M30
